<?xml version="1.0" encoding="utf-8" standalone="no"?>
<!DOCTYPE svg PUBLIC "-//W3C//DTD SVG 1.1//EN"
  "http://www.w3.org/Graphics/SVG/1.1/DTD/svg11.dtd">
<svg xmlns:xlink="http://www.w3.org/1999/xlink" width="712.253884pt" height="348.439937pt" viewBox="0 0 712.253884 348.439937" xmlns="http://www.w3.org/2000/svg" version="1.1">
 <metadata>
  <rdf:RDF xmlns:dc="http://purl.org/dc/elements/1.1/" xmlns:cc="http://creativecommons.org/ns#" xmlns:rdf="http://www.w3.org/1999/02/22-rdf-syntax-ns#">
   <cc:Work>
    <dc:type rdf:resource="http://purl.org/dc/dcmitype/StillImage"/>
    <dc:date>2026-04-29T06:51:51.392897</dc:date>
    <dc:format>image/svg+xml</dc:format>
    <dc:creator>
     <cc:Agent>
      <dc:title>Matplotlib v3.10.9, https://matplotlib.org/</dc:title>
     </cc:Agent>
    </dc:creator>
   </cc:Work>
  </rdf:RDF>
 </metadata>
 <defs>
  <style type="text/css">*{stroke-linejoin: round; stroke-linecap: butt}</style>
 </defs>
 <g id="figure_1">
  <g id="patch_1">
   <path d="M 0 348.439937 
L 712.253884 348.439937 
L 712.253884 0 
L 0 0 
z
" style="fill: #ffffff"/>
  </g>
  <g id="axes_1">
   <g id="patch_2">
    <path d="M 52.345938 309.915875 
L 705.053884 309.915875 
L 705.053884 33.875875 
L 52.345938 33.875875 
z
" style="fill: #ffffff"/>
   </g>
   <g id="matplotlib.axis_1">
    <g id="xtick_1">
     <g id="line2d_1">
      <path d="M 81.944257 309.915875 
L 81.944257 33.875875 
" clip-path="url(#pdd9da6737e)" style="fill: none; stroke: #b0b0b0; stroke-opacity: 0.3; stroke-width: 0.8; stroke-linecap: square"/>
     </g>
     <g id="line2d_2">
      <defs>
       <path id="m79ec686aa7" d="M 0 0 
L 0 3.5 
" style="stroke: #000000; stroke-width: 0.8"/>
      </defs>
      <g>
       <use xlink:href="#m79ec686aa7" x="81.944257" y="309.915875" style="stroke: #000000; stroke-width: 0.8"/>
      </g>
     </g>
     <g id="text_1">
      <!-- $\mathdefault{0}$ -->
      <g transform="translate(78.744257 324.514312)">
       <text>
        <tspan x="0" y="-0.578125" style="font-size: 10px; font-family: 'DejaVu Sans'">0</tspan>
       </text>
      </g>
     </g>
    </g>
    <g id="xtick_2">
     <g id="line2d_3">
      <path d="M 152.168074 309.915875 
L 152.168074 33.875875 
" clip-path="url(#pdd9da6737e)" style="fill: none; stroke: #b0b0b0; stroke-opacity: 0.3; stroke-width: 0.8; stroke-linecap: square"/>
     </g>
     <g id="line2d_4">
      <g>
       <use xlink:href="#m79ec686aa7" x="152.168074" y="309.915875" style="stroke: #000000; stroke-width: 0.8"/>
      </g>
     </g>
     <g id="text_2">
      <!-- $\mathdefault{10^{-3}}$ -->
      <g transform="translate(140.418074 324.514312)">
       <text>
        <tspan x="0" y="-0.976562" style="font-size: 10px; font-family: 'DejaVu Sans'">1</tspan>
        <tspan x="6.362305" y="-0.976562" style="font-size: 10px; font-family: 'DejaVu Sans'">0</tspan>
        <tspan x="12.820312" y="-4.804688" style="font-size: 7px; font-family: 'DejaVu Sans'">−</tspan>
        <tspan x="18.685547" y="-4.804688" style="font-size: 7px; font-family: 'DejaVu Sans'">3</tspan>
       </text>
      </g>
     </g>
    </g>
    <g id="xtick_3">
     <g id="line2d_5">
      <path d="M 215.36951 309.915875 
L 215.36951 33.875875 
" clip-path="url(#pdd9da6737e)" style="fill: none; stroke: #b0b0b0; stroke-opacity: 0.3; stroke-width: 0.8; stroke-linecap: square"/>
     </g>
     <g id="line2d_6">
      <g>
       <use xlink:href="#m79ec686aa7" x="215.36951" y="309.915875" style="stroke: #000000; stroke-width: 0.8"/>
      </g>
     </g>
     <g id="text_3">
      <!-- $\mathdefault{10^{-2}}$ -->
      <g transform="translate(203.61951 324.514312)">
       <text>
        <tspan x="0" y="-0.976562" style="font-size: 10px; font-family: 'DejaVu Sans'">1</tspan>
        <tspan x="6.362305" y="-0.976562" style="font-size: 10px; font-family: 'DejaVu Sans'">0</tspan>
        <tspan x="12.820312" y="-4.804688" style="font-size: 7px; font-family: 'DejaVu Sans'">−</tspan>
        <tspan x="18.685547" y="-4.804688" style="font-size: 7px; font-family: 'DejaVu Sans'">2</tspan>
       </text>
      </g>
     </g>
    </g>
    <g id="xtick_4">
     <g id="line2d_7">
      <path d="M 278.570946 309.915875 
L 278.570946 33.875875 
" clip-path="url(#pdd9da6737e)" style="fill: none; stroke: #b0b0b0; stroke-opacity: 0.3; stroke-width: 0.8; stroke-linecap: square"/>
     </g>
     <g id="line2d_8">
      <g>
       <use xlink:href="#m79ec686aa7" x="278.570946" y="309.915875" style="stroke: #000000; stroke-width: 0.8"/>
      </g>
     </g>
     <g id="text_4">
      <!-- $\mathdefault{10^{-1}}$ -->
      <g transform="translate(266.820946 324.514312)">
       <text>
        <tspan x="0" y="-0.064063" style="font-size: 10px; font-family: 'DejaVu Sans'">1</tspan>
        <tspan x="6.362305" y="-0.064063" style="font-size: 10px; font-family: 'DejaVu Sans'">0</tspan>
        <tspan x="12.820312" y="-3.892188" style="font-size: 7px; font-family: 'DejaVu Sans'">−</tspan>
        <tspan x="18.685547" y="-3.892188" style="font-size: 7px; font-family: 'DejaVu Sans'">1</tspan>
       </text>
      </g>
     </g>
    </g>
    <g id="xtick_5">
     <g id="line2d_9">
      <path d="M 341.772382 309.915875 
L 341.772382 33.875875 
" clip-path="url(#pdd9da6737e)" style="fill: none; stroke: #b0b0b0; stroke-opacity: 0.3; stroke-width: 0.8; stroke-linecap: square"/>
     </g>
     <g id="line2d_10">
      <g>
       <use xlink:href="#m79ec686aa7" x="341.772382" y="309.915875" style="stroke: #000000; stroke-width: 0.8"/>
      </g>
     </g>
     <g id="text_5">
      <!-- $\mathdefault{10^{0}}$ -->
      <g transform="translate(332.972382 324.514312)">
       <text>
        <tspan x="0" y="-0.976562" style="font-size: 10px; font-family: 'DejaVu Sans'">1</tspan>
        <tspan x="6.362305" y="-0.976562" style="font-size: 10px; font-family: 'DejaVu Sans'">0</tspan>
        <tspan x="12.820312" y="-4.804688" style="font-size: 7px; font-family: 'DejaVu Sans'">0</tspan>
       </text>
      </g>
     </g>
    </g>
    <g id="xtick_6">
     <g id="line2d_11">
      <path d="M 404.973818 309.915875 
L 404.973818 33.875875 
" clip-path="url(#pdd9da6737e)" style="fill: none; stroke: #b0b0b0; stroke-opacity: 0.3; stroke-width: 0.8; stroke-linecap: square"/>
     </g>
     <g id="line2d_12">
      <g>
       <use xlink:href="#m79ec686aa7" x="404.973818" y="309.915875" style="stroke: #000000; stroke-width: 0.8"/>
      </g>
     </g>
     <g id="text_6">
      <!-- $\mathdefault{10^{1}}$ -->
      <g transform="translate(396.173818 324.514312)">
       <text>
        <tspan x="0" y="-0.064063" style="font-size: 10px; font-family: 'DejaVu Sans'">1</tspan>
        <tspan x="6.362305" y="-0.064063" style="font-size: 10px; font-family: 'DejaVu Sans'">0</tspan>
        <tspan x="12.820312" y="-3.892188" style="font-size: 7px; font-family: 'DejaVu Sans'">1</tspan>
       </text>
      </g>
     </g>
    </g>
    <g id="xtick_7">
     <g id="line2d_13">
      <path d="M 468.175254 309.915875 
L 468.175254 33.875875 
" clip-path="url(#pdd9da6737e)" style="fill: none; stroke: #b0b0b0; stroke-opacity: 0.3; stroke-width: 0.8; stroke-linecap: square"/>
     </g>
     <g id="line2d_14">
      <g>
       <use xlink:href="#m79ec686aa7" x="468.175254" y="309.915875" style="stroke: #000000; stroke-width: 0.8"/>
      </g>
     </g>
     <g id="text_7">
      <!-- $\mathdefault{10^{2}}$ -->
      <g transform="translate(459.375254 324.514312)">
       <text>
        <tspan x="0" y="-0.976562" style="font-size: 10px; font-family: 'DejaVu Sans'">1</tspan>
        <tspan x="6.362305" y="-0.976562" style="font-size: 10px; font-family: 'DejaVu Sans'">0</tspan>
        <tspan x="12.820312" y="-4.804688" style="font-size: 7px; font-family: 'DejaVu Sans'">2</tspan>
       </text>
      </g>
     </g>
    </g>
    <g id="xtick_8">
     <g id="line2d_15">
      <path d="M 531.37669 309.915875 
L 531.37669 33.875875 
" clip-path="url(#pdd9da6737e)" style="fill: none; stroke: #b0b0b0; stroke-opacity: 0.3; stroke-width: 0.8; stroke-linecap: square"/>
     </g>
     <g id="line2d_16">
      <g>
       <use xlink:href="#m79ec686aa7" x="531.37669" y="309.915875" style="stroke: #000000; stroke-width: 0.8"/>
      </g>
     </g>
     <g id="text_8">
      <!-- $\mathdefault{10^{3}}$ -->
      <g transform="translate(522.57669 324.514312)">
       <text>
        <tspan x="0" y="-0.976562" style="font-size: 10px; font-family: 'DejaVu Sans'">1</tspan>
        <tspan x="6.362305" y="-0.976562" style="font-size: 10px; font-family: 'DejaVu Sans'">0</tspan>
        <tspan x="12.820312" y="-4.804688" style="font-size: 7px; font-family: 'DejaVu Sans'">3</tspan>
       </text>
      </g>
     </g>
    </g>
    <g id="xtick_9">
     <g id="line2d_17">
      <path d="M 594.578125 309.915875 
L 594.578125 33.875875 
" clip-path="url(#pdd9da6737e)" style="fill: none; stroke: #b0b0b0; stroke-opacity: 0.3; stroke-width: 0.8; stroke-linecap: square"/>
     </g>
     <g id="line2d_18">
      <g>
       <use xlink:href="#m79ec686aa7" x="594.578125" y="309.915875" style="stroke: #000000; stroke-width: 0.8"/>
      </g>
     </g>
     <g id="text_9">
      <!-- $\mathdefault{10^{4}}$ -->
      <g transform="translate(585.778125 324.514312)">
       <text>
        <tspan x="0" y="-0.064063" style="font-size: 10px; font-family: 'DejaVu Sans'">1</tspan>
        <tspan x="6.362305" y="-0.064063" style="font-size: 10px; font-family: 'DejaVu Sans'">0</tspan>
        <tspan x="12.820312" y="-3.892188" style="font-size: 7px; font-family: 'DejaVu Sans'">4</tspan>
       </text>
      </g>
     </g>
    </g>
    <g id="xtick_10">
     <g id="line2d_19">
      <path d="M 657.779561 309.915875 
L 657.779561 33.875875 
" clip-path="url(#pdd9da6737e)" style="fill: none; stroke: #b0b0b0; stroke-opacity: 0.3; stroke-width: 0.8; stroke-linecap: square"/>
     </g>
     <g id="line2d_20">
      <g>
       <use xlink:href="#m79ec686aa7" x="657.779561" y="309.915875" style="stroke: #000000; stroke-width: 0.8"/>
      </g>
     </g>
     <g id="text_10">
      <!-- $\mathdefault{10^{5}}$ -->
      <g transform="translate(648.979561 324.514312)">
       <text>
        <tspan x="0" y="-0.064063" style="font-size: 10px; font-family: 'DejaVu Sans'">1</tspan>
        <tspan x="6.362305" y="-0.064063" style="font-size: 10px; font-family: 'DejaVu Sans'">0</tspan>
        <tspan x="12.820312" y="-3.892188" style="font-size: 7px; font-family: 'DejaVu Sans'">5</tspan>
       </text>
      </g>
     </g>
    </g>
    <g id="text_11">
     <text style="font-size: 11px; font-family: 'DejaVu Sans', 'Bitstream Vera Sans', 'Computer Modern Sans Serif', 'Lucida Grande', 'Verdana', 'Geneva', 'Lucid', 'Arial', 'Helvetica', 'Avant Garde', sans-serif; text-anchor: middle" x="378.699911" y="338.952281" transform="rotate(-0 378.699911 338.952281)">Input x</text>
    </g>
   </g>
   <g id="matplotlib.axis_2">
    <g id="ytick_1">
     <g id="line2d_21">
      <path d="M 52.345938 309.915875 
L 705.053884 309.915875 
" clip-path="url(#pdd9da6737e)" style="fill: none; stroke: #b0b0b0; stroke-opacity: 0.3; stroke-width: 0.8; stroke-linecap: square"/>
     </g>
     <g id="line2d_22">
      <defs>
       <path id="m0d6736542c" d="M 0 0 
L -3.5 0 
" style="stroke: #000000; stroke-width: 0.8"/>
      </defs>
      <g>
       <use xlink:href="#m0d6736542c" x="52.345938" y="309.915875" style="stroke: #000000; stroke-width: 0.8"/>
      </g>
     </g>
     <g id="text_12">
      <!-- $\mathdefault{0}$ -->
      <g transform="translate(38.945938 313.715094)">
       <text>
        <tspan x="0" y="-0.578125" style="font-size: 10px; font-family: 'DejaVu Sans'">0</tspan>
       </text>
      </g>
     </g>
    </g>
    <g id="ytick_2">
     <g id="line2d_23">
      <path d="M 52.345938 290.138069 
L 705.053884 290.138069 
" clip-path="url(#pdd9da6737e)" style="fill: none; stroke: #b0b0b0; stroke-opacity: 0.3; stroke-width: 0.8; stroke-linecap: square"/>
     </g>
     <g id="line2d_24">
      <g>
       <use xlink:href="#m0d6736542c" x="52.345938" y="290.138069" style="stroke: #000000; stroke-width: 0.8"/>
      </g>
     </g>
     <g id="text_13">
      <!-- $\mathdefault{10^{-2}}$ -->
      <g transform="translate(21.845938 293.937288)">
       <text>
        <tspan x="0" y="-0.976562" style="font-size: 10px; font-family: 'DejaVu Sans'">1</tspan>
        <tspan x="6.362305" y="-0.976562" style="font-size: 10px; font-family: 'DejaVu Sans'">0</tspan>
        <tspan x="12.820312" y="-4.804688" style="font-size: 7px; font-family: 'DejaVu Sans'">−</tspan>
        <tspan x="18.685547" y="-4.804688" style="font-size: 7px; font-family: 'DejaVu Sans'">2</tspan>
       </text>
      </g>
     </g>
    </g>
    <g id="ytick_3">
     <g id="line2d_25">
      <path d="M 52.345938 242.636491 
L 705.053884 242.636491 
" clip-path="url(#pdd9da6737e)" style="fill: none; stroke: #b0b0b0; stroke-opacity: 0.3; stroke-width: 0.8; stroke-linecap: square"/>
     </g>
     <g id="line2d_26">
      <g>
       <use xlink:href="#m0d6736542c" x="52.345938" y="242.636491" style="stroke: #000000; stroke-width: 0.8"/>
      </g>
     </g>
     <g id="text_14">
      <!-- $\mathdefault{10^{-1}}$ -->
      <g transform="translate(21.845938 246.435709)">
       <text>
        <tspan x="0" y="-0.064063" style="font-size: 10px; font-family: 'DejaVu Sans'">1</tspan>
        <tspan x="6.362305" y="-0.064063" style="font-size: 10px; font-family: 'DejaVu Sans'">0</tspan>
        <tspan x="12.820312" y="-3.892188" style="font-size: 7px; font-family: 'DejaVu Sans'">−</tspan>
        <tspan x="18.685547" y="-3.892188" style="font-size: 7px; font-family: 'DejaVu Sans'">1</tspan>
       </text>
      </g>
     </g>
    </g>
    <g id="ytick_4">
     <g id="line2d_27">
      <path d="M 52.345938 191.022378 
L 705.053884 191.022378 
" clip-path="url(#pdd9da6737e)" style="fill: none; stroke: #b0b0b0; stroke-opacity: 0.3; stroke-width: 0.8; stroke-linecap: square"/>
     </g>
     <g id="line2d_28">
      <g>
       <use xlink:href="#m0d6736542c" x="52.345938" y="191.022378" style="stroke: #000000; stroke-width: 0.8"/>
      </g>
     </g>
     <g id="text_15">
      <!-- $\mathdefault{10^{0}}$ -->
      <g transform="translate(27.745938 194.821596)">
       <text>
        <tspan x="0" y="-0.976562" style="font-size: 10px; font-family: 'DejaVu Sans'">1</tspan>
        <tspan x="6.362305" y="-0.976562" style="font-size: 10px; font-family: 'DejaVu Sans'">0</tspan>
        <tspan x="12.820312" y="-4.804688" style="font-size: 7px; font-family: 'DejaVu Sans'">0</tspan>
       </text>
      </g>
     </g>
    </g>
    <g id="ytick_5">
     <g id="line2d_29">
      <path d="M 52.345938 139.353491 
L 705.053884 139.353491 
" clip-path="url(#pdd9da6737e)" style="fill: none; stroke: #b0b0b0; stroke-opacity: 0.3; stroke-width: 0.8; stroke-linecap: square"/>
     </g>
     <g id="line2d_30">
      <g>
       <use xlink:href="#m0d6736542c" x="52.345938" y="139.353491" style="stroke: #000000; stroke-width: 0.8"/>
      </g>
     </g>
     <g id="text_16">
      <!-- $\mathdefault{10^{1}}$ -->
      <g transform="translate(27.745938 143.15271)">
       <text>
        <tspan x="0" y="-0.064063" style="font-size: 10px; font-family: 'DejaVu Sans'">1</tspan>
        <tspan x="6.362305" y="-0.064063" style="font-size: 10px; font-family: 'DejaVu Sans'">0</tspan>
        <tspan x="12.820312" y="-3.892188" style="font-size: 7px; font-family: 'DejaVu Sans'">1</tspan>
       </text>
      </g>
     </g>
    </g>
    <g id="ytick_6">
     <g id="line2d_31">
      <path d="M 52.345938 87.684054 
L 705.053884 87.684054 
" clip-path="url(#pdd9da6737e)" style="fill: none; stroke: #b0b0b0; stroke-opacity: 0.3; stroke-width: 0.8; stroke-linecap: square"/>
     </g>
     <g id="line2d_32">
      <g>
       <use xlink:href="#m0d6736542c" x="52.345938" y="87.684054" style="stroke: #000000; stroke-width: 0.8"/>
      </g>
     </g>
     <g id="text_17">
      <!-- $\mathdefault{10^{2}}$ -->
      <g transform="translate(27.745938 91.483273)">
       <text>
        <tspan x="0" y="-0.976562" style="font-size: 10px; font-family: 'DejaVu Sans'">1</tspan>
        <tspan x="6.362305" y="-0.976562" style="font-size: 10px; font-family: 'DejaVu Sans'">0</tspan>
        <tspan x="12.820312" y="-4.804688" style="font-size: 7px; font-family: 'DejaVu Sans'">2</tspan>
       </text>
      </g>
     </g>
    </g>
    <g id="ytick_7">
     <g id="line2d_33">
      <path d="M 52.345938 36.014612 
L 705.053884 36.014612 
" clip-path="url(#pdd9da6737e)" style="fill: none; stroke: #b0b0b0; stroke-opacity: 0.3; stroke-width: 0.8; stroke-linecap: square"/>
     </g>
     <g id="line2d_34">
      <g>
       <use xlink:href="#m0d6736542c" x="52.345938" y="36.014612" style="stroke: #000000; stroke-width: 0.8"/>
      </g>
     </g>
     <g id="text_18">
      <!-- $\mathdefault{10^{3}}$ -->
      <g transform="translate(27.745938 39.813831)">
       <text>
        <tspan x="0" y="-0.976562" style="font-size: 10px; font-family: 'DejaVu Sans'">1</tspan>
        <tspan x="6.362305" y="-0.976562" style="font-size: 10px; font-family: 'DejaVu Sans'">0</tspan>
        <tspan x="12.820312" y="-4.804688" style="font-size: 7px; font-family: 'DejaVu Sans'">3</tspan>
       </text>
      </g>
     </g>
    </g>
    <g id="ytick_8">
     <g id="line2d_35">
      <path d="M 52.345938 277.521051 
L 705.053884 277.521051 
" clip-path="url(#pdd9da6737e)" style="fill: none; stroke: #b0b0b0; stroke-opacity: 0.3; stroke-width: 0.8; stroke-linecap: square"/>
     </g>
     <g id="line2d_36">
      <defs>
       <path id="m7dd46107bf" d="M 0 0 
L -2 0 
" style="stroke: #000000; stroke-width: 0.6"/>
      </defs>
      <g>
       <use xlink:href="#m7dd46107bf" x="52.345938" y="277.521051" style="stroke: #000000; stroke-width: 0.6"/>
      </g>
     </g>
    </g>
    <g id="ytick_9">
     <g id="line2d_37">
      <path d="M 52.345938 258.025328 
L 705.053884 258.025328 
" clip-path="url(#pdd9da6737e)" style="fill: none; stroke: #b0b0b0; stroke-opacity: 0.3; stroke-width: 0.8; stroke-linecap: square"/>
     </g>
     <g id="line2d_38">
      <g>
       <use xlink:href="#m7dd46107bf" x="52.345938" y="258.025328" style="stroke: #000000; stroke-width: 0.6"/>
      </g>
     </g>
    </g>
    <g id="ytick_10">
     <g id="line2d_39">
      <path d="M 52.345938 227.124317 
L 705.053884 227.124317 
" clip-path="url(#pdd9da6737e)" style="fill: none; stroke: #b0b0b0; stroke-opacity: 0.3; stroke-width: 0.8; stroke-linecap: square"/>
     </g>
     <g id="line2d_40">
      <g>
       <use xlink:href="#m7dd46107bf" x="52.345938" y="227.124317" style="stroke: #000000; stroke-width: 0.6"/>
      </g>
     </g>
    </g>
    <g id="ytick_11">
     <g id="line2d_41">
      <path d="M 52.345938 206.574747 
L 705.053884 206.574747 
" clip-path="url(#pdd9da6737e)" style="fill: none; stroke: #b0b0b0; stroke-opacity: 0.3; stroke-width: 0.8; stroke-linecap: square"/>
     </g>
     <g id="line2d_42">
      <g>
       <use xlink:href="#m7dd46107bf" x="52.345938" y="206.574747" style="stroke: #000000; stroke-width: 0.6"/>
      </g>
     </g>
    </g>
    <g id="ytick_12">
     <g id="line2d_43">
      <path d="M 52.345938 175.468746 
L 705.053884 175.468746 
" clip-path="url(#pdd9da6737e)" style="fill: none; stroke: #b0b0b0; stroke-opacity: 0.3; stroke-width: 0.8; stroke-linecap: square"/>
     </g>
     <g id="line2d_44">
      <g>
       <use xlink:href="#m7dd46107bf" x="52.345938" y="175.468746" style="stroke: #000000; stroke-width: 0.6"/>
      </g>
     </g>
    </g>
    <g id="ytick_13">
     <g id="line2d_45">
      <path d="M 52.345938 154.907526 
L 705.053884 154.907526 
" clip-path="url(#pdd9da6737e)" style="fill: none; stroke: #b0b0b0; stroke-opacity: 0.3; stroke-width: 0.8; stroke-linecap: square"/>
     </g>
     <g id="line2d_46">
      <g>
       <use xlink:href="#m7dd46107bf" x="52.345938" y="154.907526" style="stroke: #000000; stroke-width: 0.6"/>
      </g>
     </g>
    </g>
    <g id="ytick_14">
     <g id="line2d_47">
      <path d="M 52.345938 123.799443 
L 705.053884 123.799443 
" clip-path="url(#pdd9da6737e)" style="fill: none; stroke: #b0b0b0; stroke-opacity: 0.3; stroke-width: 0.8; stroke-linecap: square"/>
     </g>
     <g id="line2d_48">
      <g>
       <use xlink:href="#m7dd46107bf" x="52.345938" y="123.799443" style="stroke: #000000; stroke-width: 0.6"/>
      </g>
     </g>
    </g>
    <g id="ytick_15">
     <g id="line2d_49">
      <path d="M 52.345938 103.238106 
L 705.053884 103.238106 
" clip-path="url(#pdd9da6737e)" style="fill: none; stroke: #b0b0b0; stroke-opacity: 0.3; stroke-width: 0.8; stroke-linecap: square"/>
     </g>
     <g id="line2d_50">
      <g>
       <use xlink:href="#m7dd46107bf" x="52.345938" y="103.238106" style="stroke: #000000; stroke-width: 0.6"/>
      </g>
     </g>
    </g>
    <g id="ytick_16">
     <g id="line2d_51">
      <path d="M 52.345938 72.130002 
L 705.053884 72.130002 
" clip-path="url(#pdd9da6737e)" style="fill: none; stroke: #b0b0b0; stroke-opacity: 0.3; stroke-width: 0.8; stroke-linecap: square"/>
     </g>
     <g id="line2d_52">
      <g>
       <use xlink:href="#m7dd46107bf" x="52.345938" y="72.130002" style="stroke: #000000; stroke-width: 0.6"/>
      </g>
     </g>
    </g>
    <g id="ytick_17">
     <g id="line2d_53">
      <path d="M 52.345938 51.568664 
L 705.053884 51.568664 
" clip-path="url(#pdd9da6737e)" style="fill: none; stroke: #b0b0b0; stroke-opacity: 0.3; stroke-width: 0.8; stroke-linecap: square"/>
     </g>
     <g id="line2d_54">
      <g>
       <use xlink:href="#m7dd46107bf" x="52.345938" y="51.568664" style="stroke: #000000; stroke-width: 0.6"/>
      </g>
     </g>
    </g>
    <g id="text_19">
     <text style="font-size: 11px; font-family: 'DejaVu Sans', 'Bitstream Vera Sans', 'Computer Modern Sans Serif', 'Lucida Grande', 'Verdana', 'Geneva', 'Lucid', 'Arial', 'Helvetica', 'Avant Garde', sans-serif; text-anchor: middle" x="15.558281" y="171.895875" transform="rotate(-90 15.558281 171.895875)">ULP Error</text>
    </g>
   </g>
   <g id="patch_3">
    <path d="M 52.345938 309.915875 
L 52.345938 33.875875 
" style="fill: none; stroke: #000000; stroke-width: 0.8; stroke-linejoin: miter; stroke-linecap: square"/>
   </g>
   <g id="patch_4">
    <path d="M 705.053884 309.915875 
L 705.053884 33.875875 
" style="fill: none; stroke: #000000; stroke-width: 0.8; stroke-linejoin: miter; stroke-linecap: square"/>
   </g>
   <g id="patch_5">
    <path d="M 52.345938 309.915875 
L 705.053884 309.915875 
" style="fill: none; stroke: #000000; stroke-width: 0.8; stroke-linejoin: miter; stroke-linecap: square"/>
   </g>
   <g id="patch_6">
    <path d="M 52.345938 33.875875 
L 705.053884 33.875875 
" style="fill: none; stroke: #000000; stroke-width: 0.8; stroke-linejoin: miter; stroke-linecap: square"/>
   </g>
   <g id="line2d_55">
    <path d="M 82.014481 36.014612 
L 163.137509 36.104551 
L 164.272218 38.057065 
L 165.003441 39.320898 
L 166.409918 41.763304 
L 168.101668 44.701807 
L 168.36409 45.1356 
L 168.881523 46.064274 
L 169.221137 46.6333 
L 169.584371 47.29119 
L 170.05223 48.08393 
L 170.350768 48.628422 
L 170.512248 48.905704 
L 170.642548 36.014612 
L 172.048131 36.059536 
L 172.451144 36.767618 
L 174.935669 41.162587 
L 175.253586 41.705395 
L 176.790174 44.438966 
L 177.631085 45.924244 
L 178.042074 46.669348 
L 183.365032 56.297192 
L 183.632537 56.801477 
L 185.153562 59.572362 
L 185.373055 60.025706 
L 186.324537 61.794602 
L 186.384805 61.865501 
L 186.921343 62.882363 
L 186.980316 62.95679 
L 187.476536 63.947501 
L 187.53433 64.025552 
L 187.90705 64.740507 
L 187.963946 64.821371 
L 188.30286 65.478994 
L 188.358942 65.562568 
L 188.665357 66.156472 
L 188.720703 66.242613 
L 188.995772 66.766522 
L 189.050456 66.855042 
L 189.34929 67.484655 
L 189.430229 67.57606 
L 189.564598 67.852528 
L 189.614608 52.391395 
L 189.721438 52.578394 
L 190.144645 53.390998 
L 193.639554 60.091223 
L 194.006838 60.824832 
L 194.414246 61.583237 
L 194.726986 62.2234 
L 195.471989 63.637982 
L 195.730176 64.182474 
L 197.108364 66.943912 
L 198.264884 69.288397 
L 198.342878 69.387469 
L 198.958961 70.716863 
L 199.03501 70.822462 
L 199.486922 71.795905 
L 199.598747 71.906719 
L 200.004916 72.813499 
L 200.041545 72.813499 
L 200.405165 73.63815 
L 200.441264 73.63815 
L 200.76403 74.369946 
L 200.79966 74.369946 
L 201.118264 75.126414 
L 201.153438 75.126414 
L 201.433212 75.776887 
L 201.467984 75.776887 
L 201.744588 76.44678 
L 201.813305 76.44678 
L 202.086467 77.137288 
L 202.120422 77.137288 
L 202.356938 77.705414 
L 202.390559 77.705414 
L 202.62477 78.288297 
L 202.658064 78.288297 
L 202.856996 78.735616 
L 202.890012 78.735616 
L 203.120015 79.346259 
L 203.185378 79.346259 
L 203.41293 79.973986 
L 203.477599 79.973986 
L 203.6707 80.45658 
L 203.702752 80.45658 
L 203.894279 80.949781 
L 203.926072 80.949781 
L 204.116054 81.454066 
L 204.14759 81.454066 
L 204.304729 81.796665 
L 204.336049 81.796665 
L 204.523224 82.320574 
L 204.585334 82.320574 
L 204.770821 82.857008 
L 204.801614 82.857008 
L 204.955064 83.22189 
L 204.985652 83.22189 
L 205.138079 83.592803 
L 205.168463 83.592803 
L 205.350065 84.160929 
L 205.410333 84.160929 
L 205.560426 84.547831 
L 205.590347 84.547831 
L 205.739462 84.941521 
L 205.769188 84.941521 
L 205.917337 85.342241 
L 205.976373 85.342241 
L 206.123412 85.750248 
L 206.152725 85.750248 
L 206.298824 86.165811 
L 206.327951 86.165811 
L 206.473122 86.589215 
L 206.530976 86.589215 
L 206.675081 87.020762 
L 206.703812 87.020762 
L 206.847014 87.460771 
L 206.904086 87.460771 
L 207.04625 87.909581 
L 207.131197 87.909581 
L 207.272193 88.367551 
L 207.328388 88.367551 
L 207.49629 88.835063 
L 207.524173 88.835063 
L 207.690885 89.312523 
L 207.746231 89.312523 
L 207.911604 89.800363 
L 207.966506 89.800363 
L 208.130561 90.299044 
L 208.212221 90.299044 
L 208.374818 90.809061 
L 208.401824 90.809061 
L 208.563305 91.330939 
L 208.640135 91.330939 
L 208.693603 76.042449 
L 208.800226 76.311192 
L 209.946519 79.038861 
L 209.997503 79.038861 
L 210.552161 80.45658 
L 210.602034 80.45658 
L 211.046852 81.624712 
L 211.095835 81.624712 
L 211.484577 82.676768 
L 211.532786 82.676768 
L 211.867893 83.592803 
L 211.915432 83.592803 
L 212.245926 84.547831 
L 212.292817 84.547831 
L 212.57249 85.342241 
L 212.618824 85.342241 
L 212.895211 86.165811 
L 212.941007 86.165811 
L 213.214185 87.020762 
L 213.304641 87.020762 
L 213.529491 87.684054 
L 213.574241 87.684054 
L 213.796903 88.367551 
L 213.841219 88.367551 
L 214.061734 89.072523 
L 214.105623 89.072523 
L 214.324032 89.800363 
L 214.367506 89.800363 
L 214.540716 90.299044 
L 214.583849 90.299044 
L 214.798501 91.068483 
L 214.883894 91.068483 
L 215.096221 91.865244 
L 215.180692 91.865244 
L 215.348862 92.412582 
L 215.390744 92.412582 
L 215.557635 92.973605 
L 215.599201 92.973605 
L 215.764833 93.549015 
L 215.806086 93.549015 
L 215.970478 94.139569 
L 216.011423 94.139569 
L 216.133892 94.440778 
L 216.174594 94.440778 
L 216.3368 95.055604 
L 216.377203 95.055604 
L 216.53822 95.687752 
L 216.578328 95.687752 
L 216.698298 96.010632 
L 216.738173 96.010632 
L 216.897092 96.670672 
L 216.936679 96.670672 
L 217.094457 97.350717 
L 217.173008 97.350717 
L 217.329437 98.052016 
L 217.407318 98.052016 
L 217.523728 98.41106 
L 217.562422 98.41106 
L 217.716653 99.146855 
L 217.83176 99.146855 
L 217.984489 99.907598 
L 218.098483 99.907598 
L 218.212003 100.297864 
L 218.24974 100.297864 
L 218.400167 101.099369 
L 218.475074 101.099369 
L 218.58705 101.511119 
L 218.66145 101.511119 
L 218.846567 102.358003 
L 218.920266 102.358003 
L 219.103653 103.238106 
L 219.213099 103.238106 
L 219.394546 104.154141 
L 219.538846 104.154141 
L 219.718158 105.109169 
L 219.825188 105.109169 
L 219.967247 105.60237 
L 220.002647 105.60237 
L 220.143792 106.106655 
L 220.178966 106.106655 
L 220.31921 106.622534 
L 220.354159 106.622534 
L 220.493513 107.150553 
L 220.528242 107.150553 
L 220.701227 108.245392 
L 220.873127 108.245392 
L 221.009878 108.813517 
L 221.043958 108.813517 
L 221.179864 109.396401 
L 221.247563 109.396401 
L 221.416087 110.609656 
L 221.583583 110.609656 
L 221.716848 111.241804 
L 221.750063 111.241804 
L 221.882524 111.892277 
L 221.948516 111.892277 
L 222.080025 112.56217 
L 222.178244 112.56217 
L 222.308658 113.252678 
L 222.341166 113.252678 
L 222.470811 113.965111 
L 222.567646 113.965111 
L 222.696228 114.700907 
L 222.760293 114.700907 
L 222.88798 115.461649 
L 222.983355 115.461649 
L 223.110009 116.24909 
L 223.236081 116.24909 
L 223.361577 117.065171 
L 223.424111 117.065171 
L 223.548752 117.912054 
L 223.672829 117.912054 
L 223.796349 118.792157 
L 223.888626 118.792157 
L 224.01118 119.708193 
L 224.133189 119.708193 
L 224.254658 120.66322 
L 224.34541 120.66322 
L 224.465946 121.660706 
L 224.645764 121.660706 
L 224.76499 122.704604 
L 224.883701 122.704604 
L 225.001901 123.799443 
L 225.119594 123.799443 
L 225.236785 124.950452 
L 225.411639 124.950452 
L 225.527592 126.163707 
L 225.72934 126.163707 
L 225.843961 127.446327 
L 225.958106 127.446327 
L 226.071778 128.806729 
L 226.241409 128.806729 
L 226.353916 130.254957 
L 226.549702 130.254957 
L 226.660955 131.803139 
L 226.909638 131.803139 
L 227.046828 133.466104 
L 227.210557 133.466104 
L 227.346255 135.262242 
L 227.535111 135.262242 
L 227.665663 137.214755 
L 227.772494 137.214755 
L 227.931962 122.704604 
L 228.143157 124.950452 
L 228.300491 124.950452 
L 228.45693 126.163707 
L 228.50888 126.163707 
L 228.715697 128.806729 
L 228.869794 128.806729 
L 229.02303 130.254957 
L 229.124716 130.254957 
L 229.326961 133.466104 
L 229.527727 133.466104 
L 229.677344 135.262242 
L 229.727037 135.262242 
L 229.875573 137.214755 
L 229.924908 137.214755 
L 230.07238 139.353491 
L 230.219066 139.353491 
L 230.364972 141.717753 
L 230.413436 141.717753 
L 230.558313 144.360774 
L 230.654478 144.360774 
L 230.798092 147.357183 
L 230.94096 147.357183 
L 231.083088 150.816282 
L 231.177433 150.816282 
L 231.318345 154.907526 
L 231.505109 154.907526 
L 231.644352 159.9148 
L 231.782893 159.9148 
L 231.920739 166.370287 
L 231.966534 166.370287 
L 232.103462 175.468746 
L 232.239712 166.370287 
L 232.330169 166.370287 
L 232.4653 159.9148 
L 232.68905 159.9148 
L 232.82243 154.907526 
L 233.0433 154.907526 
L 233.174972 150.816282 
L 233.43644 150.816282 
L 233.566246 147.357183 
L 233.781232 147.357183 
L 233.909421 144.360774 
L 234.164017 144.360774 
L 234.290434 141.717753 
L 234.666231 141.717753 
L 234.790361 139.353491 
L 234.996006 139.353491 
L 235.118658 137.214755 
L 235.523583 137.214755 
L 235.643904 135.262242 
L 236.001737 135.262242 
L 236.119985 133.466104 
L 236.665174 133.466104 
L 236.780603 131.803139 
L 237.199744 131.803139 
L 237.312951 130.254957 
L 237.945794 130.254957 
L 238.092601 128.806729 
L 238.779409 128.806729 
L 238.921837 127.446327 
L 239.830024 127.446327 
L 239.967115 126.163707 
L 241.072734 126.163707 
L 241.171071 124.950452 
L 241.301641 126.163707 
L 241.399163 126.163707 
L 241.528655 124.950452 
L 242.667391 124.950452 
L 242.72929 123.799443 
L 242.760187 124.950452 
L 242.852671 124.950452 
L 242.975499 123.799443 
L 243.00612 123.799443 
L 243.128266 124.950452 
L 243.24987 123.799443 
L 247.010441 123.799443 
L 247.168684 108.245392 
L 247.638009 108.245392 
L 247.741225 108.813517 
L 247.844052 108.245392 
L 247.895322 108.813517 
L 247.946496 108.245392 
L 248.099449 108.245392 
L 248.251552 108.813517 
L 248.352489 108.813517 
L 248.503202 108.245392 
L 248.653091 108.813517 
L 249.918949 108.813517 
L 250.061321 109.396401 
L 251.355698 109.396401 
L 251.490828 109.99483 
L 251.669974 109.99483 
L 251.714578 109.396401 
L 251.75911 109.99483 
L 252.634907 109.99483 
L 252.763898 110.609656 
L 253.650256 110.609656 
L 253.691758 111.241804 
L 253.733198 110.609656 
L 253.774575 110.609656 
L 253.898332 111.241804 
L 254.829044 111.241804 
L 254.948149 111.892277 
L 255.536035 111.892277 
L 255.652116 112.56217 
L 256.451224 112.56217 
L 256.488702 113.252678 
L 256.52613 112.56217 
L 256.563506 112.56217 
L 256.675331 113.252678 
L 257.336879 113.252678 
L 257.445603 113.965111 
L 257.481749 113.252678 
L 257.553898 113.965111 
L 258.194848 113.965111 
L 258.335271 114.700907 
L 258.958435 114.700907 
L 258.992643 115.461649 
L 259.060934 114.700907 
L 259.095015 114.700907 
L 259.230919 115.461649 
L 259.867431 115.461649 
L 259.999572 116.24909 
L 260.747284 116.24909 
L 260.875268 117.065171 
L 261.599808 117.065171 
L 261.723886 117.912054 
L 262.486917 117.912054 
L 262.607057 118.792157 
L 263.199995 118.792157 
L 263.317061 119.708193 
L 263.375407 119.708193 
L 263.491729 118.792157 
L 263.578648 119.708193 
L 263.60756 118.792157 
L 263.665293 119.708193 
L 264.20778 119.708193 
L 264.320634 120.66322 
L 264.376888 120.66322 
L 264.404972 119.708193 
L 264.461053 120.66322 
L 265.070501 120.66322 
L 265.207145 121.660706 
L 265.929965 121.660706 
L 266.088818 122.704604 
L 266.403792 122.704604 
L 266.559934 107.691296 
L 266.818215 107.691296 
L 266.972024 108.245392 
L 267.175772 108.245392 
L 267.327596 108.813517 
L 267.628747 108.813517 
L 267.778092 109.396401 
L 268.074367 109.396401 
L 268.221313 109.99483 
L 268.464491 109.99483 
L 268.561162 110.609656 
L 268.60937 109.99483 
L 268.657494 110.609656 
L 269.134144 110.609656 
L 269.27554 111.241804 
L 269.602657 111.241804 
L 269.741666 111.892277 
L 270.063309 111.892277 
L 270.200011 112.56217 
L 270.516357 112.56217 
L 270.650825 113.252678 
L 270.962047 113.252678 
L 271.094354 113.965111 
L 271.487496 113.965111 
L 271.617302 114.700907 
L 271.917815 114.700907 
L 272.045605 115.461649 
L 272.425445 115.461649 
L 272.509145 116.24909 
L 272.5509 115.461649 
L 272.592591 116.24909 
L 272.88267 116.24909 
L 273.006057 117.065171 
L 273.29182 117.065171 
L 273.372923 117.912054 
L 273.49413 117.065171 
L 273.614804 117.912054 
L 273.854572 117.912054 
L 273.973677 118.792157 
L 274.406021 118.792157 
L 274.522761 119.708193 
L 274.946606 119.708193 
L 275.061073 120.66322 
L 275.364008 120.66322 
L 275.476752 121.660706 
L 275.589034 121.660706 
L 275.62636 120.66322 
L 275.663635 121.660706 
L 275.960025 121.660706 
L 275.99685 122.704604 
L 276.070352 121.660706 
L 276.107029 121.660706 
L 276.253249 122.704604 
L 276.651388 122.704604 
L 276.794744 123.799443 
L 277.220376 123.799443 
L 277.360798 124.950452 
L 277.777811 124.950452 
L 277.812277 126.163707 
L 277.88108 124.950452 
L 277.915418 124.950452 
L 278.052338 126.163707 
L 278.425385 126.163707 
L 278.526252 127.446327 
L 278.559792 126.163707 
L 278.62675 127.446327 
L 279.090933 127.446327 
L 279.222127 128.806729 
L 279.254828 127.446327 
L 279.320113 128.806729 
L 279.740723 128.806729 
L 279.868855 130.254957 
L 280.500694 130.254957 
L 280.625335 131.803139 
L 281.148836 131.803139 
L 281.270575 133.466104 
L 281.989884 133.466104 
L 282.107956 135.262242 
L 282.690821 135.262242 
L 282.805924 137.214755 
L 283.430499 137.214755 
L 283.514579 139.353491 
L 283.542548 137.214755 
L 283.598401 139.353491 
L 284.205398 139.353491 
L 284.341499 141.717753 
L 284.368639 139.353491 
L 284.449897 141.717753 
L 285.167093 141.717753 
L 285.32473 144.360774 
L 285.946378 144.360774 
L 286.099614 130.254957 
L 286.353124 130.254957 
L 286.504112 131.803139 
L 286.853222 131.803139 
L 287.001491 133.466104 
L 287.344372 133.466104 
L 287.490019 135.262242 
L 287.779015 135.262242 
L 287.874675 137.214755 
L 288.017545 135.262242 
L 288.159672 137.214755 
L 288.394928 137.214755 
L 288.53512 139.353491 
L 288.674601 139.353491 
L 288.720937 137.214755 
L 288.767193 139.353491 
L 288.951452 139.353491 
L 289.088837 141.717753 
L 289.541885 141.717753 
L 289.676353 144.360774 
L 289.72103 144.360774 
L 289.765634 141.717753 
L 289.810166 144.360774 
L 290.207735 144.360774 
L 290.33899 147.357183 
L 291.071133 147.357183 
L 291.198331 150.816282 
L 291.701313 150.816282 
L 291.784254 154.907526 
L 291.825631 150.816282 
L 291.866945 154.907526 
L 291.949388 154.907526 
L 291.990517 150.816282 
L 292.031584 154.907526 
L 292.479315 154.907526 
L 292.559942 159.9148 
L 292.600166 154.907526 
L 292.640332 159.9148 
L 292.800412 159.9148 
L 292.8801 154.907526 
L 292.999205 159.9148 
L 293.509431 159.9148 
L 293.587091 166.370287 
L 293.62584 159.9148 
L 293.664533 166.370287 
L 294.464749 166.370287 
L 294.502279 175.468746 
L 294.539757 166.370287 
L 294.689163 166.370287 
L 294.726387 175.468746 
L 294.763561 166.370287 
L 295.532805 166.370287 
L 295.568903 159.9148 
L 295.640958 166.370287 
L 295.784502 166.370287 
L 295.9273 159.9148 
L 297.146071 159.9148 
L 297.18011 154.907526 
L 297.248062 159.9148 
L 297.383463 159.9148 
L 297.484578 154.907526 
L 297.5182 159.9148 
L 297.585321 154.907526 
L 297.61882 154.907526 
L 297.652278 159.9148 
L 297.719072 154.907526 
L 299.494973 154.907526 
L 299.526222 150.816282 
L 299.588615 154.907526 
L 299.960013 154.907526 
L 299.990738 150.816282 
L 300.052083 154.907526 
L 300.113292 154.907526 
L 300.143845 150.816282 
L 300.20485 154.907526 
L 300.265719 154.907526 
L 300.35677 150.816282 
L 300.417304 154.907526 
L 300.447521 150.816282 
L 300.537973 150.816282 
L 300.568058 154.907526 
L 300.628128 150.816282 
L 303.927865 150.816282 
L 304.034074 147.357183 
L 304.192621 150.816282 
L 304.971906 150.816282 
L 305.02308 147.357183 
L 305.074158 150.816282 
L 305.125142 150.816282 
L 305.277529 133.466104 
L 305.429073 135.262242 
L 305.479401 133.466104 
L 305.52964 135.262242 
L 309.101379 135.262242 
L 309.233263 137.214755 
L 309.277085 135.262242 
L 309.320836 137.214755 
L 309.364518 137.214755 
L 309.40813 135.262242 
L 309.451673 137.214755 
L 309.495146 137.214755 
L 309.625156 135.262242 
L 309.668357 135.262242 
L 309.797551 137.214755 
L 309.968871 137.214755 
L 310.011534 135.262242 
L 310.05413 137.214755 
L 310.518384 137.214755 
L 310.560202 135.262242 
L 310.601956 137.214755 
L 311.945388 137.214755 
L 311.985089 139.353491 
L 312.024733 137.214755 
L 312.06432 137.214755 
L 312.182738 139.353491 
L 312.2614 139.353491 
L 312.300648 137.214755 
L 312.339838 139.353491 
L 312.690061 139.353491 
L 312.7287 137.214755 
L 312.767285 139.353491 
L 313.863286 139.353491 
L 313.900309 141.717753 
L 313.974207 139.353491 
L 314.231293 139.353491 
L 314.377126 141.717753 
L 314.449752 141.717753 
L 314.485993 139.353491 
L 314.558333 141.717753 
L 315.966473 141.717753 
L 316.069228 144.360774 
L 316.205638 141.717753 
L 316.307503 141.717753 
L 316.442738 144.360774 
L 316.577308 141.717753 
L 316.711224 141.717753 
L 316.844488 144.360774 
L 316.877703 144.360774 
L 316.910879 141.717753 
L 316.97711 144.360774 
L 317.04318 144.360774 
L 317.109091 141.717753 
L 317.141989 144.360774 
L 317.174846 144.360774 
L 317.207664 141.717753 
L 317.273183 144.360774 
L 317.338546 144.360774 
L 317.403753 141.717753 
L 317.4363 144.360774 
L 317.566098 144.360774 
L 317.695286 141.717753 
L 317.823868 144.360774 
L 319.199892 144.360774 
L 319.321631 147.357183 
L 319.382298 147.357183 
L 319.442833 144.360774 
L 319.473049 147.357183 
L 319.533383 147.357183 
L 319.623636 144.360774 
L 319.743515 147.357183 
L 321.114208 147.357183 
L 321.142641 150.816282 
L 321.199418 147.357183 
L 321.369049 147.357183 
L 321.42536 150.816282 
L 321.453472 147.357183 
L 321.481555 147.357183 
L 321.593604 150.816282 
L 322.310976 150.816282 
L 322.446808 135.262242 
L 322.527986 137.214755 
L 322.554992 135.262242 
L 322.581971 135.262242 
L 322.689626 137.214755 
L 322.716473 135.262242 
L 322.793304 137.214755 
L 323.636519 137.214755 
L 323.791778 139.353491 
L 323.843336 139.353491 
L 323.8948 137.214755 
L 323.946164 139.353491 
L 324.20156 139.353491 
L 324.252354 137.214755 
L 324.303057 139.353491 
L 324.854676 139.353491 
L 325.003213 141.717753 
L 325.150951 139.353491 
L 325.297897 141.717753 
L 325.973437 141.717753 
L 326.02106 144.360774 
L 326.068598 141.717753 
L 326.210727 141.717753 
L 326.352124 144.360774 
L 326.399094 141.717753 
L 326.445983 144.360774 
L 326.539525 144.360774 
L 326.586176 141.717753 
L 326.63275 144.360774 
L 327.502927 144.360774 
L 327.592941 147.357183 
L 327.682659 144.360774 
L 327.81669 147.357183 
L 328.082806 147.357183 
L 328.126907 144.360774 
L 328.170939 147.357183 
L 328.780083 147.357183 
L 328.823079 150.816282 
L 328.866009 147.357183 
L 328.908872 147.357183 
L 329.037061 150.816282 
L 329.12219 150.816282 
L 329.249387 147.357183 
L 329.291655 147.357183 
L 329.418073 150.816282 
L 329.669176 150.816282 
L 329.710804 147.357183 
L 329.752368 150.816282 
L 330.851467 150.816282 
L 330.970916 154.907526 
L 331.05026 154.907526 
L 331.089848 150.816282 
L 331.129377 154.907526 
L 332.402907 154.907526 
L 332.515806 159.9148 
L 332.702943 159.9148 
L 332.740218 154.907526 
L 332.777441 159.9148 
L 334.992001 159.9148 
L 335.060546 166.370287 
L 335.197128 147.357183 
L 335.231166 147.357183 
L 335.366902 150.816282 
L 335.569255 150.816282 
L 335.602836 147.357183 
L 335.669876 150.816282 
L 335.736752 150.816282 
L 335.770128 147.357183 
L 335.83676 150.816282 
L 335.870015 150.816282 
L 335.903232 147.357183 
L 335.969541 150.816282 
L 336.881447 150.816282 
L 336.913461 154.907526 
L 336.977379 150.816282 
L 337.041148 150.816282 
L 337.16824 154.907526 
L 337.29475 150.816282 
L 337.326286 150.816282 
L 337.452069 154.907526 
L 337.483425 154.907526 
L 337.608492 150.816282 
L 337.732992 154.907526 
L 337.825998 150.816282 
L 337.918689 154.907526 
L 337.949517 150.816282 
L 338.011069 154.907526 
L 338.316775 154.907526 
L 338.347159 150.816282 
L 338.407826 154.907526 
L 338.739122 154.907526 
L 338.769043 150.816282 
L 338.828786 154.907526 
L 339.68076 154.907526 
L 339.709673 159.9148 
L 339.767405 154.907526 
L 339.825016 154.907526 
L 339.939879 159.9148 
L 339.968518 154.907526 
L 340.025709 159.9148 
L 340.082782 159.9148 
L 340.111274 154.907526 
L 340.168169 159.9148 
L 340.281605 159.9148 
L 340.309893 154.907526 
L 340.366377 159.9148 
L 341.58052 159.9148 
L 341.634453 166.370287 
L 341.688279 159.9148 
L 341.978921 159.9148 
L 342.085131 166.370287 
L 342.243677 159.9148 
L 342.34887 159.9148 
L 342.505906 166.370287 
L 342.817306 166.370287 
L 342.920328 159.9148 
L 343.022962 166.370287 
L 343.176199 150.816282 
L 343.379193 150.816282 
L 343.429707 154.907526 
L 343.480128 150.816282 
L 343.530459 150.816282 
L 343.680894 154.907526 
L 344.323428 154.907526 
L 344.372235 159.9148 
L 344.420956 154.907526 
L 344.46959 154.907526 
L 344.566604 159.9148 
L 344.711483 154.907526 
L 344.759606 154.907526 
L 344.807645 159.9148 
L 344.855599 154.907526 
L 344.903473 154.907526 
L 345.046587 159.9148 
L 345.936062 159.9148 
L 345.982086 154.907526 
L 346.028036 159.9148 
L 347.284321 159.9148 
L 347.415573 166.370287 
L 347.502729 147.357183 
L 347.546202 150.816282 
L 347.676213 147.357183 
L 347.9344 147.357183 
L 348.062589 150.816282 
L 348.105185 150.816282 
L 348.147718 147.357183 
L 348.190182 150.816282 
L 348.527559 150.816282 
L 348.56944 154.907526 
L 348.611258 147.357183 
L 348.694704 150.816282 
L 348.777896 150.816282 
L 348.902214 154.907526 
L 348.943528 154.907526 
L 349.025973 150.816282 
L 349.108168 154.907526 
L 349.231003 150.816282 
L 349.312589 150.816282 
L 349.434513 154.907526 
L 349.757023 154.907526 
L 349.837063 139.353491 
L 349.876995 141.717753 
L 349.956686 139.353491 
L 350.075788 141.717753 
L 350.154905 141.717753 
L 350.194378 137.214755 
L 350.233793 141.717753 
L 350.273154 141.717753 
L 350.351703 139.353491 
L 350.469109 141.717753 
L 350.624872 141.717753 
L 350.663675 144.360774 
L 350.702423 141.717753 
L 350.818341 141.717753 
L 350.856871 144.360774 
L 350.89535 141.717753 
L 350.933772 141.717753 
L 351.010456 126.163707 
L 351.048719 127.446327 
L 351.086928 127.446327 
L 351.201237 128.806729 
L 351.277178 127.446327 
L 351.390699 128.806729 
L 351.428435 128.806729 
L 351.466119 127.446327 
L 351.503753 128.806729 
L 351.541334 128.806729 
L 351.691146 112.56217 
L 351.802971 109.99483 
L 351.840145 110.609656 
L 352.025263 78.585517 
L 352.062137 80.1337 
L 352.172464 36.014612 
L 352.209141 36.399368 
L 352.355361 93.842349 
L 352.391797 92.973605 
L 352.464518 94.139569 
L 352.609389 110.609656 
L 352.753498 108.813517 
L 352.789407 110.609656 
L 352.932577 124.950452 
L 353.003884 124.950452 
L 353.145943 122.704604 
L 353.28727 124.950452 
L 353.357661 123.799443 
L 353.39279 124.950452 
L 353.532855 139.353491 
L 353.637436 139.353491 
L 353.706937 135.262242 
L 353.741621 139.353491 
L 353.810859 139.353491 
L 353.914387 137.214755 
L 354.017529 139.353491 
L 354.051823 137.214755 
L 354.120284 139.353491 
L 354.222656 139.353491 
L 354.256694 137.214755 
L 354.324645 139.353491 
L 354.35856 139.353491 
L 354.527498 135.262242 
L 354.628365 137.214755 
L 354.661905 154.907526 
L 354.76228 150.816282 
L 355.35694 150.816282 
L 355.389601 147.357183 
L 355.45481 150.816282 
L 356.002907 150.816282 
L 356.066676 147.357183 
L 356.098504 150.816282 
L 356.16205 150.816282 
L 356.288704 147.357183 
L 356.351814 150.816282 
L 356.383313 147.357183 
L 356.414777 147.357183 
L 356.540273 150.816282 
L 356.665198 147.357183 
L 356.789557 150.816282 
L 356.913354 147.357183 
L 356.975045 147.357183 
L 357.067322 150.816282 
L 357.159288 147.357183 
L 357.311886 166.370287 
L 357.433355 159.9148 
L 357.493888 159.9148 
L 357.55429 166.370287 
L 357.58444 159.9148 
L 357.674693 159.9148 
L 357.76465 166.370287 
L 357.884136 159.9148 
L 357.973412 159.9148 
L 358.003105 166.370287 
L 358.062397 159.9148 
L 358.180598 159.9148 
L 358.239507 154.907526 
L 358.268915 159.9148 
L 358.327635 159.9148 
L 358.356948 154.907526 
L 358.415482 159.9148 
L 358.473889 159.9148 
L 358.532175 154.907526 
L 358.56127 159.9148 
L 358.648373 159.9148 
L 358.735201 154.907526 
L 358.821753 159.9148 
L 358.936735 154.907526 
L 358.994047 154.907526 
L 359.079789 159.9148 
L 359.193697 154.907526 
L 359.867394 154.907526 
L 359.895109 150.816282 
L 359.978087 154.907526 
L 360.334785 154.907526 
L 360.443612 150.816282 
L 360.579042 154.907526 
L 360.686907 150.816282 
L 360.713807 154.907526 
L 360.79435 150.816282 
L 362.404721 150.816282 
L 362.555986 166.370287 
L 362.905732 166.370287 
L 362.955334 159.9148 
L 363.004847 166.370287 
L 363.592132 166.370287 
L 363.73701 159.9148 
L 363.881129 166.370287 
L 363.929 166.370287 
L 363.976788 159.9148 
L 364.024493 166.370287 
L 364.49704 166.370287 
L 364.637233 159.9148 
L 364.730298 166.370287 
L 364.869307 159.9148 
L 365.418407 159.9148 
L 365.463674 154.907526 
L 365.508865 159.9148 
L 366.831138 159.9148 
L 366.874136 154.907526 
L 366.917065 159.9148 
L 367.636787 159.9148 
L 367.678541 154.907526 
L 367.720232 159.9148 
L 367.886366 159.9148 
L 368.010309 154.907526 
L 368.092629 154.907526 
L 368.215647 159.9148 
L 368.256531 154.907526 
L 368.297354 159.9148 
L 368.378818 159.9148 
L 368.500563 154.907526 
L 368.541025 159.9148 
L 368.581427 154.907526 
L 368.621771 154.907526 
L 368.662054 159.9148 
L 368.702279 154.907526 
L 368.742444 154.907526 
L 368.8226 159.9148 
L 368.862591 154.907526 
L 368.902523 159.9148 
L 368.942397 159.9148 
L 369.061673 154.907526 
L 369.101317 154.907526 
L 369.219906 159.9148 
L 369.337985 154.907526 
L 369.416423 159.9148 
L 369.494637 154.907526 
L 369.572629 159.9148 
L 369.6504 154.907526 
L 369.689203 159.9148 
L 369.727952 154.907526 
L 370.340599 154.907526 
L 370.453963 159.9148 
L 370.566862 154.907526 
L 370.902796 154.907526 
L 371.013867 159.9148 
L 371.161266 154.907526 
L 371.271297 154.907526 
L 371.307877 159.9148 
L 371.38089 154.907526 
L 371.634917 154.907526 
L 371.671016 159.9148 
L 371.707066 154.907526 
L 371.779026 150.816282 
L 371.814936 154.907526 
L 372.136024 154.907526 
L 372.277534 150.816282 
L 372.87094 150.816282 
L 372.905449 154.907526 
L 372.974339 150.816282 
L 373.00872 150.816282 
L 373.043057 154.907526 
L 373.111602 150.816282 
L 373.145812 150.816282 
L 373.179978 154.907526 
L 373.248183 150.816282 
L 373.282222 150.816282 
L 373.384087 154.907526 
L 373.485575 150.816282 
L 373.586689 154.907526 
L 373.653892 150.816282 
L 373.687433 154.907526 
L 373.720932 154.907526 
L 373.85452 166.370287 
L 375.124032 166.370287 
L 375.219297 159.9148 
L 375.345805 166.370287 
L 375.377342 166.370287 
L 375.408841 159.9148 
L 375.471733 166.370287 
L 375.597086 166.370287 
L 375.690726 159.9148 
L 375.784048 166.370287 
L 375.815085 159.9148 
L 375.877054 166.370287 
L 376.092849 166.370287 
L 376.123539 159.9148 
L 376.184816 166.370287 
L 376.879842 166.370287 
L 376.909665 159.9148 
L 376.969214 166.370287 
L 377.235596 166.370287 
L 377.265035 159.9148 
L 377.323819 166.370287 
L 377.557703 166.370287 
L 377.673901 159.9148 
L 377.78961 166.370287 
L 377.933563 166.370287 
L 377.990934 159.9148 
L 378.019574 166.370287 
L 378.247628 166.370287 
L 378.304347 159.9148 
L 378.332662 166.370287 
L 378.389205 166.370287 
L 378.417434 159.9148 
L 378.473803 166.370287 
L 378.530057 166.370287 
L 378.55814 159.9148 
L 378.614221 166.370287 
L 378.892921 166.370287 
L 378.975983 159.9148 
L 379.003614 166.370287 
L 379.058793 166.370287 
L 379.196258 159.9148 
L 379.223669 166.370287 
L 379.305737 159.9148 
L 379.869889 159.9148 
L 379.923355 154.907526 
L 379.976718 159.9148 
L 381.022749 159.9148 
L 381.074018 154.907526 
L 381.125192 159.9148 
L 381.531185 159.9148 
L 381.581514 154.907526 
L 381.631752 159.9148 
L 381.681897 159.9148 
L 381.731952 154.907526 
L 381.781914 159.9148 
L 382.374482 159.9148 
L 382.520647 154.907526 
L 382.666037 159.9148 
L 383.240017 159.9148 
L 383.287312 154.907526 
L 383.334525 159.9148 
L 383.709332 159.9148 
L 383.755826 154.907526 
L 383.80224 159.9148 
L 384.307687 159.9148 
L 384.398594 154.907526 
L 384.489202 159.9148 
L 384.534393 154.907526 
L 384.579511 159.9148 
L 385.291485 159.9148 
L 385.422948 154.907526 
L 385.46663 154.907526 
L 385.597258 159.9148 
L 385.727269 154.907526 
L 385.770469 154.907526 
L 385.856666 159.9148 
L 385.942593 154.907526 
L 386.028252 159.9148 
L 386.156242 154.907526 
L 386.198773 154.907526 
L 386.325972 159.9148 
L 386.36824 159.9148 
L 386.410445 154.907526 
L 386.452583 159.9148 
L 386.704069 159.9148 
L 386.74576 154.907526 
L 386.787387 159.9148 
L 387.035837 159.9148 
L 387.077029 154.907526 
L 387.118157 159.9148 
L 387.159225 159.9148 
L 387.282059 154.907526 
L 387.647299 154.907526 
L 387.727807 159.9148 
L 387.80808 154.907526 
L 387.848128 159.9148 
L 387.888119 154.907526 
L 388.007741 154.907526 
L 388.0475 159.9148 
L 388.087201 154.907526 
L 388.126845 154.907526 
L 388.205961 159.9148 
L 388.324209 154.907526 
L 388.363513 159.9148 
L 388.402759 154.907526 
L 388.63707 154.907526 
L 388.675928 159.9148 
L 388.714731 154.907526 
L 390.076319 154.907526 
L 390.113193 150.816282 
L 390.186794 154.907526 
L 390.515574 154.907526 
L 390.551864 150.816282 
L 390.624299 154.907526 
L 391.01931 154.907526 
L 391.05494 150.816282 
L 391.126061 154.907526 
L 392.068585 154.907526 
L 392.102879 150.816282 
L 392.17134 154.907526 
L 392.375702 154.907526 
L 392.477315 150.816282 
L 392.612217 154.907526 
L 393.211204 154.907526 
L 393.244101 150.816282 
L 393.309776 154.907526 
L 393.66821 154.907526 
L 393.700564 150.816282 
L 393.765158 154.907526 
L 393.990046 154.907526 
L 394.053963 150.816282 
L 394.085866 154.907526 
L 394.181352 154.907526 
L 394.213107 150.816282 
L 394.276507 154.907526 
L 394.59133 154.907526 
L 394.716254 150.816282 
L 394.778504 150.816282 
L 394.902582 154.907526 
L 394.964411 154.907526 
L 394.995273 150.816282 
L 395.056894 154.907526 
L 395.149067 154.907526 
L 395.179723 150.816282 
L 395.240931 154.907526 
L 395.544944 154.907526 
L 395.575161 150.816282 
L 395.635496 154.907526 
L 396.261124 154.907526 
L 396.290563 150.816282 
L 396.349347 154.907526 
L 396.378691 154.907526 
L 396.408005 159.9148 
L 396.466538 154.907526 
L 396.554103 154.907526 
L 396.58323 159.9148 
L 396.641391 154.907526 
L 397.016462 154.907526 
L 397.045102 150.816282 
L 397.102294 154.907526 
L 397.386477 154.907526 
L 397.47116 150.816282 
L 397.555585 154.907526 
L 397.667747 150.816282 
L 397.779453 154.907526 
L 397.835136 147.357183 
L 397.862935 150.816282 
L 397.890707 154.907526 
L 397.973851 150.816282 
L 398.029142 150.816282 
L 398.13939 144.360774 
L 398.166883 147.357183 
L 398.303936 147.357183 
L 398.494668 166.370287 
L 398.521807 159.9148 
L 398.603065 166.370287 
L 398.630098 166.370287 
L 398.764863 159.9148 
L 398.845406 159.9148 
L 399.002246 166.370287 
L 399.161715 159.9148 
L 399.320262 166.370287 
L 399.477899 159.9148 
L 399.582489 159.9148 
L 399.738632 166.370287 
L 399.790482 166.370287 
L 399.945449 159.9148 
L 400.099546 166.370287 
L 400.201799 159.9148 
L 400.252783 166.370287 
L 400.303672 159.9148 
L 400.405169 159.9148 
L 400.506291 166.370287 
L 400.556713 159.9148 
L 400.607043 166.370287 
L 400.956788 166.370287 
L 401.00639 159.9148 
L 401.055903 166.370287 
L 401.448819 166.370287 
L 401.49754 159.9148 
L 401.546175 166.370287 
L 401.691566 166.370287 
L 401.83619 159.9148 
L 401.980056 166.370287 
L 402.265546 166.370287 
L 402.407185 159.9148 
L 402.501207 166.370287 
L 402.594907 159.9148 
L 402.641638 166.370287 
L 402.688289 159.9148 
L 402.734861 159.9148 
L 402.781354 166.370287 
L 402.827769 159.9148 
L 402.966543 159.9148 
L 403.012646 166.370287 
L 403.058671 159.9148 
L 403.10462 159.9148 
L 403.196286 166.370287 
L 403.287648 159.9148 
L 403.424122 166.370287 
L 403.51473 159.9148 
L 403.559922 166.370287 
L 403.605039 159.9148 
L 403.829521 159.9148 
L 403.963335 166.370287 
L 404.007794 159.9148 
L 404.052182 166.370287 
L 404.140743 166.370287 
L 404.273052 159.9148 
L 404.360904 159.9148 
L 404.404725 166.370287 
L 404.448476 159.9148 
L 404.53577 159.9148 
L 404.579313 166.370287 
L 404.622787 159.9148 
L 404.795997 159.9148 
L 404.83913 166.370287 
L 404.882194 159.9148 
L 405.812916 159.9148 
L 405.854481 166.370287 
L 405.895983 159.9148 
L 406.225759 159.9148 
L 406.266703 154.907526 
L 406.307587 159.9148 
L 406.389173 159.9148 
L 406.511098 166.370287 
L 406.592081 159.9148 
L 406.632484 166.370287 
L 406.672827 159.9148 
L 406.71311 159.9148 
L 406.753335 166.370287 
L 406.793501 159.9148 
L 406.953579 159.9148 
L 406.993453 154.907526 
L 407.03327 159.9148 
L 408.048725 159.9148 
L 408.087041 154.907526 
L 408.125303 159.9148 
L 408.23977 159.9148 
L 408.27782 166.370287 
L 408.315818 159.9148 
L 408.391655 159.9148 
L 408.467283 166.370287 
L 408.580337 159.9148 
L 410.679204 159.9148 
L 410.71402 154.907526 
L 410.783521 159.9148 
L 411.838864 159.9148 
L 411.87224 154.907526 
L 411.938873 159.9148 
L 412.038519 159.9148 
L 412.104749 154.907526 
L 412.137804 159.9148 
L 412.203796 159.9148 
L 412.269629 154.907526 
L 412.302486 159.9148 
L 412.596447 159.9148 
L 412.628915 154.907526 
L 412.693738 159.9148 
L 412.726092 159.9148 
L 412.855128 154.907526 
L 412.98356 159.9148 
L 413.079491 159.9148 
L 413.111394 154.907526 
L 413.175088 159.9148 
L 413.238635 159.9148 
L 413.270353 154.907526 
L 413.33368 159.9148 
L 413.554181 159.9148 
L 413.585537 154.907526 
L 413.648142 159.9148 
L 413.741782 159.9148 
L 413.835104 154.907526 
L 413.959042 159.9148 
L 414.051629 154.907526 
L 414.174595 159.9148 
L 414.751277 159.9148 
L 414.781296 154.907526 
L 414.841234 159.9148 
L 414.871155 159.9148 
L 414.990512 154.907526 
L 415.109352 159.9148 
L 415.198145 159.9148 
L 415.316091 154.907526 
L 415.374875 159.9148 
L 415.40422 154.907526 
L 415.462815 154.907526 
L 415.579632 159.9148 
L 415.637854 159.9148 
L 415.75393 154.907526 
L 415.869517 159.9148 
L 415.984619 154.907526 
L 416.01332 154.907526 
L 416.07063 159.9148 
L 416.099241 154.907526 
L 416.127822 154.907526 
L 416.241848 159.9148 
L 416.355403 154.907526 
L 416.440262 159.9148 
L 416.553 154.907526 
L 416.581113 154.907526 
L 416.665277 159.9148 
L 416.777097 154.907526 
L 416.804981 154.907526 
L 416.832837 159.9148 
L 416.888464 154.907526 
L 416.916235 154.907526 
L 417.05467 159.9148 
L 417.137398 159.9148 
L 417.164918 154.907526 
L 417.247314 159.9148 
L 417.302108 159.9148 
L 417.329464 154.907526 
L 417.411369 159.9148 
L 417.844113 159.9148 
L 417.870934 154.907526 
L 417.920945 159.9148 
L 418.398436 159.9148 
L 418.450982 154.907526 
L 418.503427 159.9148 
L 418.660164 159.9148 
L 418.76416 154.907526 
L 418.81601 159.9148 
L 418.867763 154.907526 
L 419.732953 154.907526 
L 419.783008 150.816282 
L 419.832971 154.907526 
L 420.081431 154.907526 
L 420.229434 159.9148 
L 420.376644 154.907526 
L 420.425539 154.907526 
L 420.474347 159.9148 
L 420.523068 154.907526 
L 420.571703 154.907526 
L 420.717094 159.9148 
L 420.813594 159.9148 
L 420.957712 154.907526 
L 421.243698 154.907526 
L 421.291074 150.816282 
L 421.338368 154.907526 
L 421.713817 154.907526 
L 421.760389 150.816282 
L 421.806882 154.907526 
L 421.853297 159.9148 
L 421.899633 154.907526 
L 422.084199 154.907526 
L 422.221814 150.816282 
L 422.267533 150.816282 
L 422.404234 154.907526 
L 422.58545 154.907526 
L 422.630567 150.816282 
L 422.675611 154.907526 
L 422.720581 154.907526 
L 422.765477 150.816282 
L 422.8103 154.907526 
L 422.944331 154.907526 
L 422.988863 159.9148 
L 423.033322 154.907526 
L 423.561298 154.907526 
L 423.604841 159.9148 
L 423.648315 154.907526 
L 423.99365 154.907526 
L 424.036513 159.9148 
L 424.079309 154.907526 
L 424.249829 154.907526 
L 424.292294 150.816282 
L 424.334694 154.907526 
L 424.50364 154.907526 
L 424.62967 150.816282 
L 424.755125 154.907526 
L 424.921511 154.907526 
L 424.96295 150.816282 
L 425.004327 154.907526 
L 425.617609 154.907526 
L 425.698355 150.816282 
L 425.819029 154.907526 
L 426.217488 154.907526 
L 426.257017 150.816282 
L 426.29649 154.907526 
L 426.881869 154.907526 
L 426.920454 159.9148 
L 426.958984 154.907526 
L 427.718454 154.907526 
L 427.793258 150.816282 
L 427.905083 154.907526 
L 428.016454 150.816282 
L 428.164249 154.907526 
L 428.384461 154.907526 
L 428.420992 150.816282 
L 428.493908 154.907526 
L 428.530293 154.907526 
L 428.60292 150.816282 
L 428.639161 154.907526 
L 428.927383 154.907526 
L 428.998968 150.816282 
L 429.03469 154.907526 
L 429.318809 154.907526 
L 429.354118 150.816282 
L 429.4246 154.907526 
L 429.459773 154.907526 
L 429.600017 150.816282 
L 429.739548 154.907526 
L 429.843733 154.907526 
L 429.878374 150.816282 
L 429.947524 154.907526 
L 430.426758 154.907526 
L 430.595905 147.357183 
L 430.764017 154.907526 
L 430.830974 150.816282 
L 430.864392 154.907526 
L 430.964401 154.907526 
L 431.097182 150.816282 
L 431.229324 154.907526 
L 431.75162 154.907526 
L 431.880656 150.816282 
L 431.944947 154.907526 
L 431.977036 150.816282 
L 432.105019 150.816282 
L 432.232408 154.907526 
L 432.327563 150.816282 
L 432.453926 154.907526 
L 432.485426 154.907526 
L 432.579709 150.816282 
L 432.704919 154.907526 
L 432.82956 150.816282 
L 432.860632 150.816282 
L 432.98457 154.907526 
L 433.015467 154.907526 
L 433.107951 150.816282 
L 433.230779 154.907526 
L 433.2614 154.907526 
L 433.35306 150.816282 
L 433.474799 154.907526 
L 433.50515 154.907526 
L 433.596 150.816282 
L 433.656401 154.907526 
L 433.686552 150.816282 
L 433.716669 150.816282 
L 433.836809 154.907526 
L 433.926571 154.907526 
L 434.01604 150.816282 
L 434.134879 154.907526 
L 434.282709 154.907526 
L 434.400403 150.816282 
L 434.429748 150.816282 
L 434.459061 154.907526 
L 434.517594 150.816282 
L 434.546813 150.816282 
L 434.663382 154.907526 
L 434.750485 150.816282 
L 434.779458 154.907526 
L 434.837312 150.816282 
L 435.210422 150.816282 
L 435.324212 147.357183 
L 435.352586 147.357183 
L 435.409246 150.816282 
L 435.437532 147.357183 
L 435.46579 147.357183 
L 435.578528 150.816282 
L 435.662779 147.357183 
L 435.746772 150.816282 
L 435.774713 147.357183 
L 435.830509 150.816282 
L 435.886192 150.816282 
L 435.913991 147.357183 
L 435.997221 150.816282 
L 436.080198 150.816282 
L 436.217939 144.360774 
L 436.327636 150.816282 
L 436.354992 147.357183 
L 436.491364 147.357183 
L 436.627062 150.816282 
L 436.654121 150.816282 
L 436.73514 144.360774 
L 436.789019 147.357183 
L 436.896462 150.816282 
L 436.999939 147.357183 
L 437.159717 150.816282 
L 437.318571 147.357183 
L 437.47651 150.816282 
L 437.789688 150.816282 
L 437.841538 147.357183 
L 437.893291 150.816282 
L 437.944947 150.816282 
L 437.996505 147.357183 
L 438.047967 150.816282 
L 438.303839 150.816282 
L 438.354728 154.907526 
L 438.405523 150.816282 
L 438.456225 147.357183 
L 438.506832 150.816282 
L 438.908371 150.816282 
L 439.057446 147.357183 
L 439.205716 154.907526 
L 439.30412 147.357183 
L 439.35319 150.816282 
L 439.451067 150.816282 
L 439.597231 147.357183 
L 439.694244 147.357183 
L 439.839122 150.816282 
L 439.98324 147.357183 
L 440.126606 150.816282 
L 440.363896 150.816282 
L 440.458241 147.357183 
L 440.599153 150.816282 
L 440.785917 150.816282 
L 440.878825 147.357183 
L 441.017599 150.816282 
L 441.063702 150.816282 
L 441.201547 144.360774 
L 441.338704 150.816282 
L 441.384271 150.816282 
L 441.52052 147.357183 
L 441.656095 150.816282 
L 441.701139 147.357183 
L 441.746109 150.816282 
L 441.880577 150.816282 
L 441.969859 147.357183 
L 442.014391 150.816282 
L 442.05885 147.357183 
L 442.368069 147.357183 
L 442.499532 150.816282 
L 442.586826 147.357183 
L 442.630369 150.816282 
L 442.673843 147.357183 
L 442.717248 147.357183 
L 442.760585 150.816282 
L 442.803853 147.357183 
L 443.019178 147.357183 
L 443.104837 150.816282 
L 443.232826 144.360774 
L 443.275357 150.816282 
L 443.360222 147.357183 
L 443.487029 147.357183 
L 443.613252 150.816282 
L 443.738898 147.357183 
L 443.822344 150.816282 
L 443.905537 147.357183 
L 444.029855 150.816282 
L 444.112422 147.357183 
L 444.153612 150.816282 
L 444.194741 147.357183 
L 444.235809 147.357183 
L 444.358643 150.816282 
L 444.399466 147.357183 
L 444.440228 150.816282 
L 444.602675 150.816282 
L 444.643137 147.357183 
L 444.68354 150.816282 
L 444.723882 150.816282 
L 444.764166 147.357183 
L 444.804391 150.816282 
L 444.844557 150.816282 
L 444.964703 147.357183 
L 445.084326 150.816282 
L 445.124084 147.357183 
L 445.163785 150.816282 
L 445.243016 150.816282 
L 445.322018 147.357183 
L 445.361434 150.816282 
L 445.400793 144.360774 
L 445.440097 150.816282 
L 445.55767 150.816282 
L 445.674741 147.357183 
L 445.713654 150.816282 
L 445.752512 147.357183 
L 446.099781 147.357183 
L 446.138097 150.816282 
L 446.176359 144.360774 
L 446.290826 147.357183 
L 446.328876 147.357183 
L 446.366874 150.816282 
L 446.404819 144.360774 
L 446.556075 150.816282 
L 446.631392 147.357183 
L 446.706503 150.816282 
L 446.818786 147.357183 
L 446.930611 150.816282 
L 447.263378 150.816282 
L 447.336781 147.357183 
L 447.37341 150.816282 
L 447.483002 150.816282 
L 447.555821 144.360774 
L 447.628448 147.357183 
L 447.700883 147.357183 
L 447.809178 150.816282 
L 447.881139 144.360774 
L 447.917048 150.816282 
L 447.952911 150.816282 
L 448.095894 147.357183 
L 448.485301 147.357183 
L 448.590551 150.816282 
L 448.695399 147.357183 
L 448.834577 150.816282 
L 448.903902 150.816282 
L 449.042028 147.357183 
L 449.384334 147.357183 
L 449.418331 150.816282 
L 449.486199 147.357183 
L 449.553899 147.357183 
L 449.688802 150.816282 
L 449.722424 150.816282 
L 449.856502 154.907526 
L 449.989929 150.816282 
L 450.12271 154.907526 
L 450.155805 154.907526 
L 450.254852 150.816282 
L 450.287788 154.907526 
L 450.353542 150.816282 
L 450.451879 150.816282 
L 450.48458 147.357183 
L 450.549865 150.816282 
L 450.647503 150.816282 
L 450.679971 147.357183 
L 450.744794 150.816282 
L 450.841742 150.816282 
L 450.970475 154.907526 
L 451.002564 154.907526 
L 451.130547 150.816282 
L 451.194315 150.816282 
L 451.226144 154.907526 
L 451.289691 150.816282 
L 451.321409 150.816282 
L 451.384736 154.907526 
L 451.416345 150.816282 
L 451.573845 150.816282 
L 451.605237 154.907526 
L 451.636593 147.357183 
L 451.667914 150.816282 
L 451.792838 150.816282 
L 451.917197 166.370287 
L 453.308237 166.370287 
L 453.337708 175.468746 
L 453.396555 166.370287 
L 453.60153 166.370287 
L 453.630688 175.468746 
L 453.68891 166.370287 
L 454.064376 166.370287 
L 454.093046 175.468746 
L 454.150297 166.370287 
L 454.91172 166.370287 
L 454.995034 159.9148 
L 455.022749 166.370287 
L 455.050436 166.370287 
L 455.160905 159.9148 
L 455.188454 166.370287 
L 455.270932 159.9148 
L 455.760668 159.9148 
L 455.78762 166.370287 
L 455.868321 159.9148 
L 456.07883 159.9148 
L 456.132089 166.370287 
L 456.185245 159.9148 
L 456.396846 159.9148 
L 456.449492 166.370287 
L 456.502038 159.9148 
L 456.554483 159.9148 
L 456.606828 166.370287 
L 456.659073 159.9148 
L 456.71122 159.9148 
L 456.867066 166.370287 
L 456.918819 166.370287 
L 456.970475 159.9148 
L 457.022033 166.370287 
L 457.073495 166.370287 
L 457.124861 159.9148 
L 457.17613 166.370287 
L 457.278383 166.370287 
L 457.431051 159.9148 
L 457.53236 166.370287 
L 457.582875 159.9148 
L 457.633297 166.370287 
L 457.733864 166.370287 
L 457.784009 159.9148 
L 457.834064 166.370287 
L 457.884027 166.370287 
L 457.933899 159.9148 
L 457.983681 166.370287 
L 458.28049 166.370287 
L 458.329648 159.9148 
L 458.378718 166.370287 
L 458.4277 166.370287 
L 458.476595 159.9148 
L 458.525403 166.370287 
L 459.152134 166.370287 
L 459.199756 159.9148 
L 459.247296 166.370287 
L 459.294754 166.370287 
L 459.34213 159.9148 
L 459.389424 166.370287 
L 460.08923 166.370287 
L 460.135255 159.9148 
L 460.181204 166.370287 
L 460.318589 166.370287 
L 460.409799 159.9148 
L 460.500706 166.370287 
L 460.591314 159.9148 
L 460.726667 166.370287 
L 460.861355 159.9148 
L 460.995387 166.370287 
L 461.039918 159.9148 
L 461.084378 166.370287 
L 461.173083 166.370287 
L 461.217327 159.9148 
L 461.261501 166.370287 
L 461.349636 166.370287 
L 461.481309 159.9148 
L 461.52506 159.9148 
L 461.655897 166.370287 
L 461.699371 159.9148 
L 461.742776 166.370287 
L 461.829381 166.370287 
L 461.958778 159.9148 
L 462.087569 166.370287 
L 462.130365 166.370287 
L 462.173094 159.9148 
L 462.215757 166.370287 
L 462.428084 166.370287 
L 462.554696 159.9148 
L 462.680726 166.370287 
L 462.722608 166.370287 
L 462.847872 159.9148 
L 462.8895 166.370287 
L 462.931065 159.9148 
L 463.014006 159.9148 
L 463.055383 154.907526 
L 463.096697 159.9148 
L 463.261337 159.9148 
L 463.384171 166.370287 
L 463.506458 159.9148 
L 463.5471 166.370287 
L 463.587682 159.9148 
L 463.628203 159.9148 
L 463.668665 166.370287 
L 463.709067 159.9148 
L 463.74941 159.9148 
L 463.870085 166.370287 
L 463.950241 159.9148 
L 463.990231 166.370287 
L 464.030163 159.9148 
L 464.347546 159.9148 
L 464.386962 166.370287 
L 464.426321 159.9148 
L 464.504872 159.9148 
L 464.544063 166.370287 
L 464.583198 159.9148 
L 464.77804 159.9148 
L 464.816843 166.370287 
L 464.855592 159.9148 
L 464.932925 159.9148 
L 464.971509 166.370287 
L 465.01004 159.9148 
L 465.048517 159.9148 
L 465.08694 166.370287 
L 465.125309 159.9148 
L 465.201887 159.9148 
L 465.278251 166.370287 
L 465.354404 159.9148 
L 465.430347 166.370287 
L 465.468239 159.9148 
L 465.506079 166.370287 
L 465.543867 166.370287 
L 465.65692 159.9148 
L 465.76951 166.370287 
L 465.881639 159.9148 
L 465.956139 159.9148 
L 465.993313 166.370287 
L 466.030436 159.9148 
L 466.653976 159.9148 
L 466.798655 166.370287 
L 466.942576 159.9148 
L 467.014254 159.9148 
L 467.085746 166.370287 
L 467.121422 159.9148 
L 467.157052 159.9148 
L 467.192636 166.370287 
L 467.263665 159.9148 
L 467.651073 159.9148 
L 467.686022 166.370287 
L 467.755788 159.9148 
L 467.790604 159.9148 
L 467.825376 166.370287 
L 467.894789 159.9148 
L 468.067556 159.9148 
L 468.13636 166.370287 
L 468.170697 159.9148 
L 468.375823 159.9148 
L 468.443859 166.370287 
L 468.477814 159.9148 
L 468.781533 159.9148 
L 468.915448 166.370287 
L 468.948824 166.370287 
L 469.015457 154.907526 
L 469.048712 159.9148 
L 469.115103 166.370287 
L 469.148238 159.9148 
L 469.181333 159.9148 
L 469.28038 166.370287 
L 469.37907 159.9148 
L 469.411888 166.370287 
L 469.477407 159.9148 
L 469.834992 159.9148 
L 469.89951 166.370287 
L 469.931712 159.9148 
L 470.346937 159.9148 
L 470.441873 154.907526 
L 470.567945 159.9148 
L 471.004694 159.9148 
L 471.035626 166.370287 
L 471.097385 159.9148 
L 471.312456 159.9148 
L 471.343044 166.370287 
L 471.404116 159.9148 
L 471.707457 159.9148 
L 471.737607 166.370287 
L 471.797809 159.9148 
L 472.714438 159.9148 
L 472.801541 154.907526 
L 472.859456 159.9148 
L 472.888368 150.816282 
L 473.061203 159.9148 
L 473.089904 154.907526 
L 473.147214 159.9148 
L 473.261478 159.9148 
L 473.28997 154.907526 
L 473.346865 159.9148 
L 473.68578 159.9148 
L 473.713835 154.907526 
L 473.769859 159.9148 
L 475.736747 159.9148 
L 475.788795 166.370287 
L 475.840744 159.9148 
L 476.303911 159.9148 
L 476.354895 154.907526 
L 476.405784 159.9148 
L 476.809537 159.9148 
L 476.959427 154.907526 
L 477.108502 159.9148 
L 477.599652 159.9148 
L 477.648287 154.907526 
L 477.696836 159.9148 
L 478.034296 159.9148 
L 478.082168 154.907526 
L 478.129956 159.9148 
L 478.177662 159.9148 
L 478.225284 154.907526 
L 478.272824 159.9148 
L 478.836973 159.9148 
L 478.883466 154.907526 
L 478.929881 159.9148 
L 479.206732 159.9148 
L 479.252603 154.907526 
L 479.298398 159.9148 
L 479.662034 159.9148 
L 479.707151 154.907526 
L 479.752195 159.9148 
L 479.931633 159.9148 
L 480.020914 154.907526 
L 480.154294 159.9148 
L 480.19861 159.9148 
L 480.242855 154.907526 
L 480.287029 159.9148 
L 481.113097 159.9148 
L 481.241285 154.907526 
L 481.326413 159.9148 
L 481.453612 154.907526 
L 481.664308 154.907526 
L 481.748136 159.9148 
L 481.831709 154.907526 
L 481.956593 159.9148 
L 482.039534 159.9148 
L 482.080911 154.907526 
L 482.122225 159.9148 
L 482.163478 159.9148 
L 482.286864 154.907526 
L 482.32787 154.907526 
L 482.368815 159.9148 
L 482.409699 154.907526 
L 482.450522 154.907526 
L 482.531986 159.9148 
L 482.653731 154.907526 
L 482.774938 159.9148 
L 482.855447 154.907526 
L 482.895613 159.9148 
L 482.93572 154.907526 
L 482.975769 154.907526 
L 483.095565 159.9148 
L 483.135382 159.9148 
L 483.17514 154.907526 
L 483.214841 159.9148 
L 483.294072 159.9148 
L 483.373074 154.907526 
L 483.491153 159.9148 
L 483.5304 159.9148 
L 483.608726 154.907526 
L 483.647805 159.9148 
L 483.686829 154.907526 
L 483.725797 154.907526 
L 483.842371 159.9148 
L 483.919813 154.907526 
L 484.035568 159.9148 
L 484.074045 154.907526 
L 484.112468 159.9148 
L 484.150837 159.9148 
L 484.265624 154.907526 
L 484.379932 159.9148 
L 484.531607 159.9148 
L 484.569395 154.907526 
L 484.607131 159.9148 
L 484.795038 159.9148 
L 484.832465 154.907526 
L 484.869842 159.9148 
L 484.907167 159.9148 
L 484.981667 154.907526 
L 485.093038 159.9148 
L 485.240833 159.9148 
L 485.277658 154.907526 
L 485.35116 159.9148 
L 485.387837 159.9148 
L 485.424466 154.907526 
L 485.497576 159.9148 
L 485.534058 159.9148 
L 485.679504 154.907526 
L 485.968104 154.907526 
L 486.039782 159.9148 
L 486.075551 154.907526 
L 486.18258 154.907526 
L 486.324639 159.9148 
L 486.430702 159.9148 
L 486.465966 154.907526 
L 486.536357 159.9148 
L 486.676601 159.9148 
L 486.781316 154.907526 
L 486.920317 159.9148 
L 487.024108 159.9148 
L 487.161888 154.907526 
L 487.230519 154.907526 
L 487.333146 159.9148 
L 487.469387 154.907526 
L 487.604955 154.907526 
L 487.706194 159.9148 
L 487.739857 154.907526 
L 487.807061 159.9148 
L 487.840601 159.9148 
L 487.940975 154.907526 
L 487.974352 159.9148 
L 488.040985 154.907526 
L 488.140631 154.907526 
L 488.272932 159.9148 
L 488.305908 159.9148 
L 488.437416 154.907526 
L 488.535636 159.9148 
L 488.666051 154.907526 
L 489.085672 154.907526 
L 489.149663 159.9148 
L 489.181603 154.907526 
L 489.213506 154.907526 
L 489.340747 159.9148 
L 489.372465 159.9148 
L 489.498973 154.907526 
L 489.53051 154.907526 
L 489.624901 159.9148 
L 489.750254 154.907526 
L 489.875037 159.9148 
L 489.906144 159.9148 
L 489.999255 154.907526 
L 490.092051 159.9148 
L 490.215293 154.907526 
L 490.399125 154.907526 
L 490.520999 159.9148 
L 490.581734 154.907526 
L 490.612051 159.9148 
L 490.642334 159.9148 
L 490.702801 154.907526 
L 490.732985 159.9148 
L 490.763135 159.9148 
L 490.883407 154.907526 
L 490.913393 159.9148 
L 490.973267 154.907526 
L 491.003155 154.907526 
L 491.122382 159.9148 
L 491.241093 154.907526 
L 491.476987 154.907526 
L 491.564927 159.9148 
L 491.681744 154.907526 
L 491.71087 154.907526 
L 491.769031 159.9148 
L 491.798065 154.907526 
L 491.856042 154.907526 
L 491.884984 159.9148 
L 491.942778 154.907526 
L 492.00045 154.907526 
L 492.058001 159.9148 
L 492.086731 154.907526 
L 492.172742 154.907526 
L 492.201353 150.816282 
L 492.258485 154.907526 
L 492.570602 154.907526 
L 492.626971 150.816282 
L 492.655112 159.9148 
L 492.739363 154.907526 
L 492.767389 159.9148 
L 492.823356 154.907526 
L 492.851297 154.907526 
L 492.934949 159.9148 
L 493.046089 154.907526 
L 493.184386 159.9148 
L 493.211961 154.907526 
L 493.294523 159.9148 
L 493.513481 159.9148 
L 493.540728 154.907526 
L 493.622308 159.9148 
L 493.838676 159.9148 
L 493.946224 154.907526 
L 494.076523 159.9148 
L 494.236301 150.816282 
L 494.395154 154.907526 
L 495.329439 154.907526 
L 495.380423 150.816282 
L 495.431312 154.907526 
L 495.583416 154.907526 
L 495.633931 159.9148 
L 495.684353 154.907526 
L 495.78492 154.907526 
L 495.835065 150.816282 
L 495.885119 154.907526 
L 496.380704 154.907526 
L 496.429773 159.9148 
L 496.478756 154.907526 
L 496.576459 154.907526 
L 496.62518 159.9148 
L 496.673815 154.907526 
L 497.581876 154.907526 
L 497.628846 150.816282 
L 497.675737 154.907526 
L 498.140286 154.907526 
L 498.186311 150.816282 
L 498.23226 154.907526 
L 498.597103 154.907526 
L 498.64237 159.9148 
L 498.687562 154.907526 
L 498.822692 154.907526 
L 498.867589 150.816282 
L 498.912411 154.907526 
L 498.957161 159.9148 
L 499.001838 154.907526 
L 499.090974 154.907526 
L 499.135434 150.816282 
L 499.179822 154.907526 
L 499.532365 154.907526 
L 499.576116 150.816282 
L 499.619798 154.907526 
L 500.181421 154.907526 
L 500.22415 150.816282 
L 500.266813 154.907526 
L 500.689836 154.907526 
L 500.815482 150.816282 
L 500.940556 154.907526 
L 500.982121 150.816282 
L 501.023623 154.907526 
L 501.147753 154.907526 
L 501.189006 150.816282 
L 501.230196 154.907526 
L 501.516812 154.907526 
L 501.557514 150.816282 
L 501.598156 154.907526 
L 501.760123 154.907526 
L 501.880975 150.816282 
L 502.001297 154.907526 
L 502.041287 154.907526 
L 502.160909 150.816282 
L 502.280013 154.907526 
L 502.398602 154.907526 
L 502.438018 150.816282 
L 502.477377 154.907526 
L 502.516681 154.907526 
L 502.595118 150.816282 
L 502.673333 154.907526 
L 502.790238 147.357183 
L 502.98398 154.907526 
L 503.519295 154.907526 
L 503.557135 159.9148 
L 503.594923 154.907526 
L 504.007195 154.907526 
L 504.044369 150.816282 
L 504.081492 154.907526 
L 504.266361 154.907526 
L 504.413365 150.816282 
L 504.559586 154.907526 
L 505.06531 154.907526 
L 505.208108 150.816282 
L 505.279229 150.816282 
L 505.420921 154.907526 
L 505.45623 154.907526 
L 505.526712 150.816282 
L 505.561885 154.907526 
L 505.632097 154.907526 
L 505.771983 150.816282 
L 505.806844 150.816282 
L 505.945845 154.907526 
L 506.049636 150.816282 
L 506.084146 154.907526 
L 506.153035 150.816282 
L 506.290299 150.816282 
L 506.426879 154.907526 
L 506.460918 154.907526 
L 506.494915 150.816282 
L 506.562783 154.907526 
L 506.630483 154.907526 
L 506.698017 150.816282 
L 506.731722 154.907526 
L 506.799008 154.907526 
L 506.866129 147.357183 
L 506.933086 150.816282 
L 506.966503 150.816282 
L 506.99988 154.907526 
L 507.066513 150.816282 
L 507.199294 150.816282 
L 507.265444 154.907526 
L 507.29846 150.816282 
L 507.397269 150.816282 
L 507.495723 154.907526 
L 507.626449 150.816282 
L 507.659034 150.816282 
L 507.788986 154.907526 
L 507.918326 150.816282 
L 508.079148 150.816282 
L 508.1112 154.907526 
L 508.175191 150.816282 
L 508.366275 150.816282 
L 508.397993 147.357183 
L 508.429675 154.907526 
L 508.46132 150.816282 
L 508.587538 150.816282 
L 508.681821 154.907526 
L 508.807031 150.816282 
L 509.363512 150.816282 
L 509.3941 147.357183 
L 509.455172 150.816282 
L 509.576911 150.816282 
L 509.698112 147.357183 
L 509.758513 147.357183 
L 509.878917 150.816282 
L 509.938921 150.816282 
L 510.028683 147.357183 
L 510.14791 150.816282 
L 510.266621 147.357183 
L 510.325785 147.357183 
L 510.443731 150.816282 
L 510.561173 147.357183 
L 510.765494 147.357183 
L 510.794559 144.360774 
L 510.852597 147.357183 
L 511.369488 147.357183 
L 511.426324 144.360774 
L 511.454698 147.357183 
L 511.567901 147.357183 
L 511.652499 144.360774 
L 511.764891 147.357183 
L 511.848884 144.360774 
L 511.960477 147.357183 
L 512.099332 144.360774 
L 512.18231 144.360774 
L 512.209914 141.717753 
L 512.292558 144.360774 
L 512.429748 144.360774 
L 512.539008 141.717753 
L 512.674975 144.360774 
L 512.702088 141.717753 
L 512.783266 144.360774 
L 513.102051 144.360774 
L 513.261829 141.717753 
L 513.420682 139.353491 
L 513.47343 141.717753 
L 513.526076 139.353491 
L 513.995403 139.353491 
L 514.150079 137.214755 
L 514.201444 137.214755 
L 514.303888 139.353491 
L 514.354967 137.214755 
L 514.405951 139.353491 
L 514.558336 139.353491 
L 514.709881 137.214755 
L 515.010483 137.214755 
L 515.159558 135.262242 
L 515.504284 135.262242 
L 515.650708 133.466104 
L 515.699343 133.466104 
L 515.747892 135.262242 
L 515.796356 133.466104 
L 515.844733 131.803139 
L 515.893026 133.466104 
L 515.941234 133.466104 
L 516.085352 131.803139 
L 516.133224 133.466104 
L 516.181012 131.803139 
L 516.32388 130.254957 
L 516.418714 130.254957 
L 516.466008 131.803139 
L 516.513221 130.254957 
L 516.841457 130.254957 
L 516.980937 128.806729 
L 517.027273 128.806729 
L 517.165814 127.446327 
L 517.303659 127.446327 
L 517.440816 124.950452 
L 517.486383 127.446327 
L 517.531874 126.163707 
L 517.57729 126.163707 
L 517.71309 124.950452 
L 517.982689 124.950452 
L 518.116502 123.799443 
L 518.20535 123.799443 
L 518.338085 122.704604 
L 518.382188 122.704604 
L 518.514072 121.660706 
L 518.601644 121.660706 
L 518.732481 120.66322 
L 518.905965 120.66322 
L 519.07836 118.792157 
L 519.12129 118.792157 
L 519.249678 117.912054 
L 519.292341 117.912054 
L 519.419934 117.065171 
L 519.462334 117.912054 
L 519.504668 117.065171 
L 519.546937 117.065171 
L 519.589141 115.461649 
L 519.673354 116.24909 
L 519.75731 116.24909 
L 519.882765 115.461649 
L 519.966084 115.461649 
L 520.09059 113.965111 
L 520.131967 114.700907 
L 520.173281 113.965111 
L 520.255724 113.965111 
L 520.419871 112.56217 
L 520.460755 112.56217 
L 520.623684 111.241804 
L 520.664265 111.892277 
L 520.704787 111.241804 
L 520.785651 111.241804 
L 520.946669 109.99483 
L 520.986776 109.99483 
L 521.106747 109.396401 
L 521.186437 109.396401 
L 521.384657 107.691296 
L 521.463546 107.691296 
L 521.620646 106.622534 
L 521.659781 107.150553 
L 521.776853 106.106655 
L 521.815766 106.106655 
L 522.009508 104.626575 
L 522.086624 104.626575 
L 522.31668 102.79374 
L 522.354835 103.238106 
L 522.468986 102.358003 
L 522.50693 102.358003 
L 522.658187 101.511119 
L 522.695872 101.511119 
L 522.846094 100.695038 
L 522.883521 100.695038 
L 523.10702 99.146855 
L 523.144094 99.146855 
L 523.36549 97.698627 
L 523.438893 97.698627 
L 523.657933 96.670672 
L 523.91129 95.055604 
L 523.947294 95.055604 
L 524.233636 93.549015 
L 524.26922 93.549015 
L 524.446449 92.137244 
L 524.517022 92.137244 
L 524.832372 90.552603 
L 525.178563 88.60009 
L 525.212944 88.60009 
L 525.622182 86.589215 
L 526.125296 83.969951 
L 526.158511 83.969951 
L 526.356963 82.857008 
L 527.391803 77.705414 
L 527.423521 77.705414 
L 527.675957 76.311192 
L 527.707349 76.311192 
L 527.9572 74.998552 
L 528.4807 72.469148 
L 528.753857 71.249899 
L 529.024323 69.889497 
L 529.380847 68.132446 
L 529.645234 66.943912 
L 530.137787 64.579648 
L 530.338062 63.714962 
L 530.593429 62.440911 
L 530.762364 61.723925 
L 531.069402 60.222835 
L 531.180207 59.765532 
L 531.509961 58.204419 
L 536.648159 36.014612 
L 675.385341 36.014612 
L 675.385341 36.014612 
" clip-path="url(#pdd9da6737e)" style="fill: none; stroke: #e67e22; stroke-width: 1.5; stroke-linecap: square"/>
   </g>
   <g id="text_20">
    <text style="font-size: 11px; font-family: 'DejaVu Sans', 'Bitstream Vera Sans', 'Computer Modern Sans Serif', 'Lucida Grande', 'Verdana', 'Geneva', 'Lucid', 'Arial', 'Helvetica', 'Avant Garde', sans-serif" transform="translate(271.954364 15.558281)">ttnn.digamma — ULP error  [WH, fp32]</text>
    <text style="font-size: 11px; font-family: 'DejaVu Sans', 'Bitstream Vera Sans', 'Computer Modern Sans Serif', 'Lucida Grande', 'Verdana', 'Geneva', 'Lucid', 'Arial', 'Helvetica', 'Avant Garde', sans-serif" transform="translate(215.974676 27.875875)">(1166427 inputs clipped at 1000 — see abs error in report)</text>
   </g>
  </g>
 </g>
 <defs>
  <clipPath id="pdd9da6737e">
   <rect x="52.345938" y="33.875875" width="652.707946" height="276.04"/>
  </clipPath>
 </defs>
</svg>
